<svg width="54" height="51" viewBox="0 0 54 51" fill="none" xmlns="http://www.w3.org/2000/svg">
<mask id="mask0_1122_9268" style="mask-type:alpha" maskUnits="userSpaceOnUse" x="0" y="0" width="54" height="51">
<ellipse cx="27" cy="25.5" rx="27" ry="25.5" fill="#00529A"/>
</mask>
<g mask="url(#mask0_1122_9268)">
<ellipse cx="27" cy="25.5" rx="27" ry="25.5" fill="#00529A"/>
<path d="M42.7901 9C32.5101 9 22.2401 9 11.9701 9C11.3301 9 11.2201 9.11 11.2201 9.74C11.2201 14.37 11.2201 18.99 11.2201 23.62H12.2001C12.2001 22.84 12.3101 22.06 12.5501 21.3C12.8601 20.35 13.2601 19.44 13.9701 18.7C14.1701 18.5 14.3201 18.25 14.4901 18.03L14.6201 17.9C15.2901 17.25 16.0401 16.7 16.8901 16.34C17.5301 16.07 18.2201 15.9 18.8901 15.7C19.0701 15.65 19.2801 15.63 19.4701 15.63C21.2601 15.61 23.0501 15.59 24.8401 15.57C24.8501 15.56 24.8701 15.53 24.8801 15.53C25.1401 15.6 25.0001 15.81 25.0201 15.95C25.0201 15.98 24.9001 16.02 24.8401 16.06C23.4501 16.06 22.0701 16.02 20.6901 16.08C19.7601 16.12 18.8101 16.11 17.9001 16.44C17.0601 16.75 16.2601 17.14 15.5701 17.72C15.5501 17.74 15.5201 17.75 15.5001 17.77C14.7901 18.37 14.1701 19.05 13.7201 19.86C13.2301 20.72 12.8701 21.64 12.8101 22.64C12.7901 22.96 12.7601 23.29 12.7401 23.62H13.7401C13.7801 21.56 14.5601 19.82 16.2601 18.47C16.2801 18.45 16.3101 18.44 16.3301 18.42C17.1001 17.83 17.9801 17.48 18.9201 17.26C19.1501 17.22 19.3801 17.19 19.6201 17.15C19.7801 17.1 19.8201 17.17 19.8101 17.32C19.8101 17.7 19.8101 18.08 19.8101 18.46C19.8101 18.95 19.9601 19.1 20.4401 19.1C22.0301 19.1 23.6101 19.1 25.2001 19.1C25.6101 19.1 25.7901 18.95 25.8801 18.53V15.12C25.8001 14.71 25.6201 14.55 25.2001 14.55C23.5301 14.55 21.8601 14.55 20.1801 14.55C19.8701 14.55 19.5501 14.55 19.2401 14.56C19.2001 14.58 19.1501 14.59 19.1101 14.61C18.6701 14.72 18.2301 14.81 17.7901 14.93C16.6901 15.23 15.6801 15.7 14.7901 16.43C14.4501 16.72 14.1001 17 13.7601 17.29V10.04H34.9401V14.56C33.7601 14.56 32.6101 14.56 31.4501 14.56C31.0801 14.56 30.9101 14.73 30.9101 15.09C30.9101 16.75 30.9101 18.41 30.9101 20.07C30.9101 20.42 31.1001 20.61 31.4401 20.61C34.0901 20.61 36.7401 20.61 39.3901 20.61C39.7601 20.61 39.9501 20.42 39.9901 20.05C39.9501 19.97 39.8801 19.88 39.8801 19.8C39.8801 18.33 39.8801 16.86 39.8801 15.38C39.8801 15.3 39.9501 15.21 39.9901 15.13C39.9501 14.76 39.7601 14.57 39.4001 14.56C38.9101 14.56 38.4101 14.56 37.9201 14.56H35.9901V10.02H36.3401C38.4301 10.02 40.5201 10.02 42.6101 10.02C42.9701 10.02 43.2901 9.98 43.5301 9.7V9.38C43.3501 9.12 43.1301 9 42.7901 9ZM25.0301 17.98C25.0301 17.98 24.9101 18.05 24.8501 18.09H20.8301V17.09H24.8501C24.9101 17.13 25.0301 17.16 25.0301 17.2C25.0501 17.46 25.0501 17.72 25.0301 17.97V17.98ZM12.4401 19.07C12.3501 19.17 12.3201 19.32 12.2401 19.49V10.03H12.7401V10.36C12.7401 12.99 12.7401 15.61 12.7401 18.24C12.7401 18.57 12.6401 18.82 12.4401 19.06V19.07ZM38.9701 15.59V19.55C38.9701 19.55 38.9401 19.58 38.9201 19.6C36.6101 19.6 34.2901 19.6 31.9801 19.6C31.9601 19.58 31.9501 19.57 31.9301 19.55V15.59H38.9701Z" fill="#FEFDFD"/>
<path d="M41.8701 25.92C42.5201 25.92 43.0301 25.71 43.2601 25.04C43.2701 25.01 43.3201 24.99 43.3601 24.97V24.4C43.2501 24.22 43.1701 24.01 43.0301 23.86C42.7101 23.53 42.2901 23.39 41.8401 23.39C34.9201 23.39 27.9901 23.39 21.0701 23.39C20.9001 23.39 11.6801 23.43 11.5101 23.45C10.9801 23.54 11.0001 24.95 11.0001 24.94C11.0001 24.93 11.0801 25.93 11.4201 25.93C14.4801 25.93 26.9201 25.93 29.9801 25.93C30.2101 25.93 30.4401 25.93 30.6701 25.94C30.6901 25.96 30.7001 25.97 30.7201 25.99C30.7201 26.12 30.7201 26.24 30.7201 26.37V27.49C30.7201 27.62 30.7201 27.74 30.7201 27.87V32.9C30.7201 32.9 30.6901 32.93 30.6701 32.95C29.1901 32.95 27.7001 32.95 26.2201 32.95L25.3201 32.96C24.6001 33 23.8701 32.97 23.1401 32.96C22.0801 32.97 21.0301 32.98 19.9701 32.96H15.9401C15.7601 32.96 15.6601 32.96 15.5601 32.96C14.2401 32.96 12.9101 32.96 11.5901 32.96C11.2401 32.96 11.0501 33.14 11.0401 33.46C11.0401 33.78 11.2301 33.96 11.5701 33.97C11.6501 33.97 11.7401 33.97 11.8201 33.97C22.0701 33.97 32.3201 33.97 42.5701 33.97C42.8301 33.97 43.0901 33.89 43.3401 33.85V33.35C43.1701 33.08 42.9401 32.96 42.6001 32.96C41.6801 32.98 40.7601 32.96 39.8201 32.96V30.92H39.8101V27.75C39.8001 27.68 39.8101 27.6 39.8101 27.52V26.27C39.7801 26.17 39.7901 26.04 39.8201 25.9C40.4801 25.9 41.1601 25.9 41.8401 25.9L41.8701 25.92ZM38.8101 32.97H31.7701V31.49H31.7001V26.14H31.7601V25.93H38.8101V28.94H38.8201V32.95L38.8101 32.97Z" fill="#FEFDFD"/>
<path d="M39.9801 20.05C39.9401 19.97 39.8701 19.88 39.8701 19.8C39.8701 18.33 39.8701 16.86 39.8701 15.38C39.8701 15.3 39.9401 15.21 39.9801 15.13V20.05Z" fill="#010101"/>
<path d="M19.2301 14.57C19.2301 14.57 19.1401 14.6 19.1001 14.62C19.1401 14.6 19.1901 14.59 19.2301 14.57Z" fill="#020202"/>
<path d="M24.8501 18.09C24.8501 17.76 24.8501 17.43 24.8501 17.09C24.9101 17.13 25.0301 17.16 25.0301 17.2C25.0501 17.46 25.0501 17.72 25.0301 17.97C25.0301 18.01 24.9101 18.04 24.8501 18.08V18.09Z" fill="black"/>
<path d="M24.8501 16.07C24.8501 15.91 24.8501 15.74 24.8501 15.58C24.8601 15.57 24.8801 15.54 24.8901 15.54C25.1501 15.61 25.0101 15.82 25.0301 15.96C25.0301 15.99 24.9101 16.03 24.8501 16.07Z" fill="black"/>
<path d="M41.7301 24.69H12.1801C12.1101 24.69 12.0501 24.63 12.0501 24.56C12.0501 24.49 12.1101 24.43 12.1801 24.43H41.7301C41.8001 24.43 41.8601 24.49 41.8601 24.56C41.8601 24.63 41.8001 24.69 41.7301 24.69Z" fill="#00529A"/>
<path d="M15.504 39.44V42.984C15.504 43.4053 15.6133 43.7227 15.832 43.936C16.056 44.1493 16.3653 44.256 16.76 44.256C17.16 44.256 17.4693 44.1493 17.688 43.936C17.912 43.7227 18.024 43.4053 18.024 42.984V39.44H18.936V42.968C18.936 43.4213 18.8373 43.8053 18.64 44.12C18.4427 44.4347 18.1787 44.6693 17.848 44.824C17.5173 44.9787 17.152 45.056 16.752 45.056C16.352 45.056 15.9867 44.9787 15.656 44.824C15.3307 44.6693 15.072 44.4347 14.88 44.12C14.688 43.8053 14.592 43.4213 14.592 42.968V39.44H15.504ZM21.0354 44.264H22.9154V45H20.1234V39.44H21.0354V44.264ZM27.2701 39.44V40.184H25.7901V45H24.8781V40.184H23.3901V39.44H27.2701ZM31.0818 45L29.8018 42.776H29.1058V45H28.1938V39.44H30.1138C30.5404 39.44 30.9004 39.5147 31.1938 39.664C31.4924 39.8133 31.7138 40.0133 31.8578 40.264C32.0071 40.5147 32.0818 40.7947 32.0818 41.104C32.0818 41.4667 31.9751 41.7973 31.7618 42.096C31.5538 42.3893 31.2311 42.5893 30.7938 42.696L32.1698 45H31.0818ZM29.1058 42.048H30.1138C30.4551 42.048 30.7111 41.9627 30.8818 41.792C31.0578 41.6213 31.1458 41.392 31.1458 41.104C31.1458 40.816 31.0604 40.592 30.8898 40.432C30.7191 40.2667 30.4604 40.184 30.1138 40.184H29.1058V42.048ZM36.6004 43.864H34.2724L33.8724 45H32.9204L34.9124 39.432H35.9684L37.9604 45H37.0004L36.6004 43.864ZM36.3444 43.12L35.4404 40.536L34.5284 43.12H36.3444Z" fill="white"/>
</g>
</svg>
