<svg width="51" height="51" viewBox="0 0 51 51" fill="none" xmlns="http://www.w3.org/2000/svg">
<mask id="mask0_1122_9266" style="mask-type:alpha" maskUnits="userSpaceOnUse" x="0" y="0" width="51" height="51">
<circle cx="25.5" cy="25.5" r="25.5" fill="#00529A"/>
</mask>
<g mask="url(#mask0_1122_9266)">
<circle cx="25.5" cy="25.5" r="25.5" fill="#00529A"/>
<path d="M40.7901 12C30.5101 12 20.2401 12 9.9701 12C9.3301 12 9.2201 12.11 9.2201 12.74C9.2201 17.37 9.2201 21.99 9.2201 26.62H10.2001C10.2001 25.84 10.3101 25.06 10.5501 24.3C10.8601 23.35 11.2601 22.44 11.9701 21.7C12.1701 21.5 12.3201 21.25 12.4901 21.03L12.6201 20.9C13.2901 20.25 14.0401 19.7 14.8901 19.34C15.5301 19.07 16.2201 18.9 16.8901 18.7C17.0701 18.65 17.2801 18.63 17.4701 18.63C19.2601 18.61 21.0501 18.59 22.8401 18.57C22.8501 18.56 22.8701 18.53 22.8801 18.53C23.1401 18.6 23.0001 18.81 23.0201 18.95C23.0201 18.98 22.9001 19.02 22.8401 19.06C21.4501 19.06 20.0701 19.02 18.6901 19.08C17.7601 19.12 16.8101 19.11 15.9001 19.44C15.0601 19.75 14.2601 20.14 13.5701 20.72C13.5501 20.74 13.5201 20.75 13.5001 20.77C12.7901 21.37 12.1701 22.05 11.7201 22.86C11.2301 23.72 10.8701 24.64 10.8101 25.64C10.7901 25.96 10.7601 26.29 10.7401 26.62H11.7401C11.7801 24.56 12.5601 22.82 14.2601 21.47C14.2801 21.45 14.3101 21.44 14.3301 21.42C15.1001 20.83 15.9801 20.48 16.9201 20.26C17.1501 20.22 17.3801 20.19 17.6201 20.15C17.7801 20.1 17.8201 20.17 17.8101 20.32C17.8101 20.7 17.8101 21.08 17.8101 21.46C17.8101 21.95 17.9601 22.1 18.4401 22.1C20.0301 22.1 21.6101 22.1 23.2001 22.1C23.6101 22.1 23.7901 21.95 23.8801 21.53V18.12C23.8001 17.71 23.6201 17.55 23.2001 17.55C21.5301 17.55 19.8601 17.55 18.1801 17.55C17.8701 17.55 17.5501 17.55 17.2401 17.56C17.2001 17.58 17.1501 17.59 17.1101 17.61C16.6701 17.72 16.2301 17.81 15.7901 17.93C14.6901 18.23 13.6801 18.7 12.7901 19.43C12.4501 19.72 12.1001 20 11.7601 20.29V13.04H32.9401V17.56C31.7601 17.56 30.6101 17.56 29.4501 17.56C29.0801 17.56 28.9101 17.73 28.9101 18.09C28.9101 19.75 28.9101 21.41 28.9101 23.07C28.9101 23.42 29.1001 23.61 29.4401 23.61C32.0901 23.61 34.7401 23.61 37.3901 23.61C37.7601 23.61 37.9501 23.42 37.9901 23.05C37.9501 22.97 37.8801 22.88 37.8801 22.8C37.8801 21.33 37.8801 19.86 37.8801 18.38C37.8801 18.3 37.9501 18.21 37.9901 18.13C37.9501 17.76 37.7601 17.57 37.4001 17.56C36.9101 17.56 36.4101 17.56 35.9201 17.56H33.9901V13.02H34.3401C36.4301 13.02 38.5201 13.02 40.6101 13.02C40.9701 13.02 41.2901 12.98 41.5301 12.7V12.38C41.3501 12.12 41.1301 12 40.7901 12ZM23.0301 20.98C23.0301 20.98 22.9101 21.05 22.8501 21.09H18.8301V20.09H22.8501C22.9101 20.13 23.0301 20.16 23.0301 20.2C23.0501 20.46 23.0501 20.72 23.0301 20.97V20.98ZM10.4401 22.07C10.3501 22.17 10.3201 22.32 10.2401 22.49V13.03H10.7401V13.36C10.7401 15.99 10.7401 18.61 10.7401 21.24C10.7401 21.57 10.6401 21.82 10.4401 22.06V22.07ZM36.9701 18.59V22.55C36.9701 22.55 36.9401 22.58 36.9201 22.6C34.6101 22.6 32.2901 22.6 29.9801 22.6C29.9601 22.58 29.9501 22.57 29.9301 22.55V18.59H36.9701Z" fill="#FEFDFD"/>
<path d="M39.8701 28.92C40.5201 28.92 41.0301 28.71 41.2601 28.04C41.2701 28.01 41.3201 27.99 41.3601 27.97V27.4C41.2501 27.22 41.1701 27.01 41.0301 26.86C40.7101 26.53 40.2901 26.39 39.8401 26.39C32.9201 26.39 25.9901 26.39 19.0701 26.39C18.9001 26.39 9.6801 26.43 9.5101 26.45C8.9801 26.54 9.0001 27.95 9.0001 27.94C9.0001 27.93 9.0801 28.93 9.4201 28.93C12.4801 28.93 24.9201 28.93 27.9801 28.93C28.2101 28.93 28.4401 28.93 28.6701 28.94C28.6901 28.96 28.7001 28.97 28.7201 28.99C28.7201 29.12 28.7201 29.24 28.7201 29.37V30.49C28.7201 30.62 28.7201 30.74 28.7201 30.87V35.9C28.7201 35.9 28.6901 35.93 28.6701 35.95C27.1901 35.95 25.7001 35.95 24.2201 35.95L23.3201 35.96C22.6001 36 21.8701 35.97 21.1401 35.96C20.0801 35.97 19.0301 35.98 17.9701 35.96H13.9401C13.7601 35.96 13.6601 35.96 13.5601 35.96C12.2401 35.96 10.9101 35.96 9.5901 35.96C9.2401 35.96 9.0501 36.14 9.0401 36.46C9.0401 36.78 9.2301 36.96 9.5701 36.97C9.6501 36.97 9.7401 36.97 9.8201 36.97C20.0701 36.97 30.3201 36.97 40.5701 36.97C40.8301 36.97 41.0901 36.89 41.3401 36.85V36.35C41.1701 36.08 40.9401 35.96 40.6001 35.96C39.6801 35.98 38.7601 35.96 37.8201 35.96V33.92H37.8101V30.75C37.8001 30.68 37.8101 30.6 37.8101 30.52V29.27C37.7801 29.17 37.7901 29.04 37.8201 28.9C38.4801 28.9 39.1601 28.9 39.8401 28.9L39.8701 28.92ZM36.8101 35.97H29.7701V34.49H29.7001V29.14H29.7601V28.93H36.8101V31.94H36.8201V35.95L36.8101 35.97Z" fill="#FEFDFD"/>
<path d="M37.9801 23.05C37.9401 22.97 37.8701 22.88 37.8701 22.8C37.8701 21.33 37.8701 19.86 37.8701 18.38C37.8701 18.3 37.9401 18.21 37.9801 18.13V23.05Z" fill="#010101"/>
<path d="M17.2301 17.57C17.2301 17.57 17.1401 17.6 17.1001 17.62C17.1401 17.6 17.1901 17.59 17.2301 17.57Z" fill="#020202"/>
<path d="M22.8501 21.09C22.8501 20.76 22.8501 20.43 22.8501 20.09C22.9101 20.13 23.0301 20.16 23.0301 20.2C23.0501 20.46 23.0501 20.72 23.0301 20.97C23.0301 21.01 22.9101 21.04 22.8501 21.08V21.09Z" fill="black"/>
<path d="M22.8501 19.07C22.8501 18.91 22.8501 18.74 22.8501 18.58C22.8601 18.57 22.8801 18.54 22.8901 18.54C23.1501 18.61 23.0101 18.82 23.0301 18.96C23.0301 18.99 22.9101 19.03 22.8501 19.07Z" fill="black"/>
<path d="M39.7301 27.69H10.1801C10.1101 27.69 10.0501 27.63 10.0501 27.56C10.0501 27.49 10.1101 27.43 10.1801 27.43H39.7301C39.8001 27.43 39.8601 27.49 39.8601 27.56C39.8601 27.63 39.8001 27.69 39.7301 27.69Z" fill="#00529A"/>
</g>
</svg>
