<svg width="54" height="51" viewBox="0 0 54 51" fill="none" xmlns="http://www.w3.org/2000/svg">
<mask id="mask0_1122_9258" style="mask-type:alpha" maskUnits="userSpaceOnUse" x="0" y="0" width="54" height="51">
<ellipse cx="27" cy="25.5" rx="27" ry="25.5" fill="#00529A"/>
</mask>
<g mask="url(#mask0_1122_9258)">
<ellipse cx="27" cy="25.5" rx="27" ry="25.5" fill="#00529A"/>
<path d="M34.9919 16.7497C32.9843 16.0989 30.9281 15.7325 28.8232 15.6121C23.9639 15.3223 19.3861 16.3231 15.0951 18.6419C11.9133 20.3645 9.22939 22.6943 7 25.5545V25.9537C8.35279 27.7857 9.94367 29.3772 11.751 30.7334C17.8007 35.2725 24.57 36.8804 31.9724 35.546C38.2061 34.4194 43.2872 31.253 47.286 26.2982C47.6323 25.8662 47.6269 25.6802 47.286 25.2427C45.6627 23.181 43.7633 21.4255 41.6043 19.9489C40.0242 18.8716 38.3414 17.9911 36.5232 17.2692M8.37984 25.7459C11.778 21.6278 16.0474 18.8825 21.2043 17.5426C15.7552 21.7919 15.8689 29.935 21.2205 33.9928C17.9468 33.8397 10.5389 29.0928 8.38525 25.7513L8.37984 25.7459ZM34.3588 17.9255L35.8252 18.3083C39.9322 19.8505 43.3737 22.3443 46.1984 25.7787C42.7785 29.9295 38.4983 32.6803 33.3144 33.9928C33.5038 33.8288 33.6932 33.6702 33.8826 33.5061C37.4972 30.3889 38.4496 25.0185 36.1282 20.8185C35.9821 20.556 35.8035 20.3536 35.4843 20.3755C35.0243 20.4083 34.8566 20.8622 35.0514 21.3489C35.3977 22.2239 35.8144 23.088 36.0146 23.9958C37.1022 28.9178 33.612 33.971 28.6771 34.6819C23.6609 35.4038 19.24 32.1006 18.4446 27.042C17.7141 22.388 21.0257 17.7176 25.6198 16.9083C27.189 16.6293 28.7582 16.7332 30.3112 16.952C31.572 17.127 32.8166 17.4497 34.0666 17.7122" fill="#FEFDFD"/>
<path d="M43.2224 10.7176C43.4551 10.4824 43.6932 10.2527 43.9313 10.023C44.0828 9.88082 44.3317 9.77691 44.5427 9.76051C45.0676 9.72223 45.5979 9.74957 46.1228 9.7441C46.5935 9.7441 47.0156 9.59097 47.3457 9.26285C49.0664 7.5347 50.7926 5.80655 52.4917 4.05653C53.1951 3.32918 53.1519 2.22448 52.4646 1.48619C52.1508 1.14712 51.8207 0.813521 51.4852 0.49633C50.7764 -0.159928 49.7104 -0.165397 49.0015 0.479923C48.7364 0.720551 48.4874 0.977586 48.2439 1.24009C47.9896 1.51353 47.9788 1.86353 48.1952 2.09869C48.4279 2.35026 48.7851 2.35573 49.0773 2.08776C49.2991 1.87994 49.5047 1.65025 49.7266 1.44244C50.0567 1.13071 50.4192 1.12524 50.7439 1.43697C51.0036 1.68306 51.2525 1.9401 51.5015 2.19713C51.9181 2.62917 51.9181 2.96277 51.4906 3.40027C50.5437 4.36278 49.5859 5.3253 48.6335 6.28781C48.5686 6.35343 48.4983 6.40812 48.4604 6.43547C47.8435 5.81202 47.2429 5.19951 46.5827 4.52685C46.7613 4.36825 46.9831 4.19872 47.1779 4.00184C47.5134 3.66824 47.5513 3.31824 47.3024 3.05574C47.0318 2.76589 46.6964 2.7987 46.3392 3.15964C45.5438 3.95809 44.7592 4.76748 43.9583 5.56045C43.5254 5.98702 43.3306 6.50109 43.3306 7.10266C43.3306 7.59485 43.3523 8.09252 43.3198 8.58471C43.309 8.77612 43.2278 9.00581 43.1034 9.13706C42.7408 9.51988 42.3674 9.89723 41.9941 10.2746C42.3945 10.455 42.8057 10.5972 43.2278 10.7176H43.2224ZM44.5319 6.9386C44.5373 6.79094 44.6185 6.62141 44.7159 6.51203C45.0351 6.15656 45.376 5.82843 45.6791 5.5167C46.3068 6.15109 46.9074 6.7636 47.5459 7.41438C47.2266 7.72064 46.8966 8.06517 46.5448 8.38236C46.442 8.47533 46.2905 8.54096 46.1552 8.54643C45.6304 8.56284 45.1055 8.5519 44.5211 8.5519C44.5211 7.97767 44.5102 7.4636 44.5319 6.94407V6.9386Z" fill="#FEFDFD"/>
<path d="M27.3136 25.7677L42.2809 10.105L43.3414 10.5316L27.3136 25.7677Z" fill="#FEFDFD"/>
<path d="M27.3515 25.806L27.2757 25.7295L42.27 10.0449L43.4388 10.5152L27.3515 25.806ZM42.2971 10.1707L28.8883 24.2037L43.244 10.5535L42.2971 10.1707Z" fill="#FEFDFD"/>
<path d="M27.687 28.6553C26.1394 28.6553 24.884 27.3865 24.884 25.8224C24.884 24.2583 26.1394 22.9896 27.687 22.9896C29.2346 22.9896 30.49 24.2583 30.49 25.8224C30.49 27.3865 29.2346 28.6553 27.687 28.6553ZM27.687 23.5255C26.4316 23.5255 25.4143 24.5591 25.4143 25.8224C25.4143 27.0857 26.437 28.1193 27.687 28.1193C28.937 28.1193 29.9597 27.0857 29.9597 25.8224C29.9597 24.5591 28.937 23.5255 27.687 23.5255Z" fill="#FEFDFD"/>
</g>
</svg>
