<svg width="69" height="45" viewBox="0 0 69 45" fill="none" xmlns="http://www.w3.org/2000/svg">
<circle cx="33.5" cy="22.5" r="22.5" fill="#00529A"/>
<path d="M22.66 14.556C22.7 13.756 22.98 13.14 23.5 12.708C24.028 12.268 24.72 12.048 25.576 12.048C26.16 12.048 26.66 12.152 27.076 12.36C27.492 12.56 27.804 12.836 28.012 13.188C28.228 13.532 28.336 13.924 28.336 14.364C28.336 14.868 28.204 15.296 27.94 15.648C27.684 15.992 27.376 16.224 27.016 16.344V16.392C27.48 16.536 27.84 16.792 28.096 17.16C28.36 17.528 28.492 18 28.492 18.576C28.492 19.056 28.38 19.484 28.156 19.86C27.94 20.236 27.616 20.532 27.184 20.748C26.76 20.956 26.248 21.06 25.648 21.06C24.744 21.06 24.008 20.832 23.44 20.376C22.872 19.92 22.572 19.248 22.54 18.36H24.172C24.188 18.752 24.32 19.068 24.568 19.308C24.824 19.54 25.172 19.656 25.612 19.656C26.02 19.656 26.332 19.544 26.548 19.32C26.772 19.088 26.884 18.792 26.884 18.432C26.884 17.952 26.732 17.608 26.428 17.4C26.124 17.192 25.652 17.088 25.012 17.088H24.664V15.708H25.012C26.148 15.708 26.716 15.328 26.716 14.568C26.716 14.224 26.612 13.956 26.404 13.764C26.204 13.572 25.912 13.476 25.528 13.476C25.152 13.476 24.86 13.58 24.652 13.788C24.452 13.988 24.336 14.244 24.304 14.556H22.66ZM29.8196 16.512C29.8196 15.128 30.0676 14.044 30.5636 13.26C31.0676 12.476 31.8996 12.084 33.0596 12.084C34.2196 12.084 35.0476 12.476 35.5436 13.26C36.0476 14.044 36.2996 15.128 36.2996 16.512C36.2996 17.904 36.0476 18.996 35.5436 19.788C35.0476 20.58 34.2196 20.976 33.0596 20.976C31.8996 20.976 31.0676 20.58 30.5636 19.788C30.0676 18.996 29.8196 17.904 29.8196 16.512ZM34.6436 16.512C34.6436 15.92 34.6036 15.424 34.5236 15.024C34.4516 14.616 34.2996 14.284 34.0676 14.028C33.8436 13.772 33.5076 13.644 33.0596 13.644C32.6116 13.644 32.2716 13.772 32.0396 14.028C31.8156 14.284 31.6636 14.616 31.5836 15.024C31.5116 15.424 31.4756 15.92 31.4756 16.512C31.4756 17.12 31.5116 17.632 31.5836 18.048C31.6556 18.456 31.8076 18.788 32.0396 19.044C32.2716 19.292 32.6116 19.416 33.0596 19.416C33.5076 19.416 33.8476 19.292 34.0796 19.044C34.3116 18.788 34.4636 18.456 34.5356 18.048C34.6076 17.632 34.6436 17.12 34.6436 16.512ZM44.0454 17.46H41.7774V19.788H40.1934V17.46H37.9254V15.996H40.1934V13.668H41.7774V15.996H44.0454V17.46Z" fill="#FEFDFD"/>
<path d="M23.396 29.652C23.396 28.98 23.528 28.384 23.792 27.864C24.064 27.344 24.428 26.944 24.884 26.664C25.348 26.384 25.864 26.244 26.432 26.244C26.928 26.244 27.36 26.344 27.728 26.544C28.104 26.744 28.404 26.996 28.628 27.3V26.352H30.32V33H28.628V32.028C28.412 32.34 28.112 32.6 27.728 32.808C27.352 33.008 26.916 33.108 26.42 33.108C25.86 33.108 25.348 32.964 24.884 32.676C24.428 32.388 24.064 31.984 23.792 31.464C23.528 30.936 23.396 30.332 23.396 29.652ZM28.628 29.676C28.628 29.268 28.548 28.92 28.388 28.632C28.228 28.336 28.012 28.112 27.74 27.96C27.468 27.8 27.176 27.72 26.864 27.72C26.552 27.72 26.264 27.796 26 27.948C25.736 28.1 25.52 28.324 25.352 28.62C25.192 28.908 25.112 29.252 25.112 29.652C25.112 30.052 25.192 30.404 25.352 30.708C25.52 31.004 25.736 31.232 26 31.392C26.272 31.552 26.56 31.632 26.864 31.632C27.176 31.632 27.468 31.556 27.74 31.404C28.012 31.244 28.228 31.02 28.388 30.732C28.548 30.436 28.628 30.084 28.628 29.676ZM35.6448 26.256C36.4368 26.256 37.0768 26.508 37.5648 27.012C38.0528 27.508 38.2968 28.204 38.2968 29.1V33H36.6168V29.328C36.6168 28.8 36.4848 28.396 36.2208 28.116C35.9568 27.828 35.5968 27.684 35.1408 27.684C34.6768 27.684 34.3088 27.828 34.0368 28.116C33.7728 28.396 33.6408 28.8 33.6408 29.328V33H31.9608V26.352H33.6408V27.18C33.8648 26.892 34.1488 26.668 34.4928 26.508C34.8448 26.34 35.2288 26.256 35.6448 26.256ZM42.4384 33.108C41.8944 33.108 41.4064 33.012 40.9744 32.82C40.5424 32.62 40.1984 32.352 39.9424 32.016C39.6944 31.68 39.5584 31.308 39.5344 30.9H41.2264C41.2584 31.156 41.3824 31.368 41.5984 31.536C41.8224 31.704 42.0984 31.788 42.4264 31.788C42.7464 31.788 42.9944 31.724 43.1704 31.596C43.3544 31.468 43.4464 31.304 43.4464 31.104C43.4464 30.888 43.3344 30.728 43.1104 30.624C42.8944 30.512 42.5464 30.392 42.0664 30.264C41.5704 30.144 41.1624 30.02 40.8424 29.892C40.5304 29.764 40.2584 29.568 40.0264 29.304C39.8024 29.04 39.6904 28.684 39.6904 28.236C39.6904 27.868 39.7944 27.532 40.0024 27.228C40.2184 26.924 40.5224 26.684 40.9144 26.508C41.3144 26.332 41.7824 26.244 42.3184 26.244C43.1104 26.244 43.7424 26.444 44.2144 26.844C44.6864 27.236 44.9464 27.768 44.9944 28.44H43.3864C43.3624 28.176 43.2504 27.968 43.0504 27.816C42.8584 27.656 42.5984 27.576 42.2704 27.576C41.9664 27.576 41.7304 27.632 41.5624 27.744C41.4024 27.856 41.3224 28.012 41.3224 28.212C41.3224 28.436 41.4344 28.608 41.6584 28.728C41.8824 28.84 42.2304 28.956 42.7024 29.076C43.1824 29.196 43.5784 29.32 43.8904 29.448C44.2024 29.576 44.4704 29.776 44.6944 30.048C44.9264 30.312 45.0464 30.664 45.0544 31.104C45.0544 31.488 44.9464 31.832 44.7304 32.136C44.5224 32.44 44.2184 32.68 43.8184 32.856C43.4264 33.024 42.9664 33.108 42.4384 33.108Z" fill="#FEFDFD"/>
</svg>
