<svg width="54" height="51" viewBox="0 0 54 51" fill="none" xmlns="http://www.w3.org/2000/svg">
<mask id="mask0_1122_9281" style="mask-type:alpha" maskUnits="userSpaceOnUse" x="0" y="0" width="54" height="51">
<ellipse cx="27" cy="25.5" rx="27" ry="25.5" fill="#00529A"/>
</mask>
<g mask="url(#mask0_1122_9281)">
<ellipse cx="27" cy="25.5" rx="27" ry="25.5" fill="#00529A"/>
<path d="M42.7901 12C32.5101 12 22.2401 12 11.9701 12C11.3301 12 11.2201 12.11 11.2201 12.74C11.2201 17.37 11.2201 21.99 11.2201 26.62H12.2001C12.2001 25.84 12.3101 25.06 12.5501 24.3C12.8601 23.35 13.2601 22.44 13.9701 21.7C14.1701 21.5 14.3201 21.25 14.4901 21.03L14.6201 20.9C15.2901 20.25 16.0401 19.7 16.8901 19.34C17.5301 19.07 18.2201 18.9 18.8901 18.7C19.0701 18.65 19.2801 18.63 19.4701 18.63C21.2601 18.61 23.0501 18.59 24.8401 18.57C24.8501 18.56 24.8701 18.53 24.8801 18.53C25.1401 18.6 25.0001 18.81 25.0201 18.95C25.0201 18.98 24.9001 19.02 24.8401 19.06C23.4501 19.06 22.0701 19.02 20.6901 19.08C19.7601 19.12 18.8101 19.11 17.9001 19.44C17.0601 19.75 16.2601 20.14 15.5701 20.72C15.5501 20.74 15.5201 20.75 15.5001 20.77C14.7901 21.37 14.1701 22.05 13.7201 22.86C13.2301 23.72 12.8701 24.64 12.8101 25.64C12.7901 25.96 12.7601 26.29 12.7401 26.62H13.7401C13.7801 24.56 14.5601 22.82 16.2601 21.47C16.2801 21.45 16.3101 21.44 16.3301 21.42C17.1001 20.83 17.9801 20.48 18.9201 20.26C19.1501 20.22 19.3801 20.19 19.6201 20.15C19.7801 20.1 19.8201 20.17 19.8101 20.32C19.8101 20.7 19.8101 21.08 19.8101 21.46C19.8101 21.95 19.9601 22.1 20.4401 22.1C22.0301 22.1 23.6101 22.1 25.2001 22.1C25.6101 22.1 25.7901 21.95 25.8801 21.53V18.12C25.8001 17.71 25.6201 17.55 25.2001 17.55C23.5301 17.55 21.8601 17.55 20.1801 17.55C19.8701 17.55 19.5501 17.55 19.2401 17.56C19.2001 17.58 19.1501 17.59 19.1101 17.61C18.6701 17.72 18.2301 17.81 17.7901 17.93C16.6901 18.23 15.6801 18.7 14.7901 19.43C14.4501 19.72 14.1001 20 13.7601 20.29V13.04H34.9401V17.56C33.7601 17.56 32.6101 17.56 31.4501 17.56C31.0801 17.56 30.9101 17.73 30.9101 18.09C30.9101 19.75 30.9101 21.41 30.9101 23.07C30.9101 23.42 31.1001 23.61 31.4401 23.61C34.0901 23.61 36.7401 23.61 39.3901 23.61C39.7601 23.61 39.9501 23.42 39.9901 23.05C39.9501 22.97 39.8801 22.88 39.8801 22.8C39.8801 21.33 39.8801 19.86 39.8801 18.38C39.8801 18.3 39.9501 18.21 39.9901 18.13C39.9501 17.76 39.7601 17.57 39.4001 17.56C38.9101 17.56 38.4101 17.56 37.9201 17.56H35.9901V13.02H36.3401C38.4301 13.02 40.5201 13.02 42.6101 13.02C42.9701 13.02 43.2901 12.98 43.5301 12.7V12.38C43.3501 12.12 43.1301 12 42.7901 12ZM25.0301 20.98C25.0301 20.98 24.9101 21.05 24.8501 21.09H20.8301V20.09H24.8501C24.9101 20.13 25.0301 20.16 25.0301 20.2C25.0501 20.46 25.0501 20.72 25.0301 20.97V20.98ZM12.4401 22.07C12.3501 22.17 12.3201 22.32 12.2401 22.49V13.03H12.7401V13.36C12.7401 15.99 12.7401 18.61 12.7401 21.24C12.7401 21.57 12.6401 21.82 12.4401 22.06V22.07ZM38.9701 18.59V22.55C38.9701 22.55 38.9401 22.58 38.9201 22.6C36.6101 22.6 34.2901 22.6 31.9801 22.6C31.9601 22.58 31.9501 22.57 31.9301 22.55V18.59H38.9701Z" fill="#FEFDFD"/>
<path d="M41.8701 28.92C42.5201 28.92 43.0301 28.71 43.2601 28.04C43.2701 28.01 43.3201 27.99 43.3601 27.97V27.4C43.2501 27.22 43.1701 27.01 43.0301 26.86C42.7101 26.53 42.2901 26.39 41.8401 26.39C34.9201 26.39 27.9901 26.39 21.0701 26.39C20.9001 26.39 11.6801 26.43 11.5101 26.45C10.9801 26.54 11.0001 27.95 11.0001 27.94C11.0001 27.93 11.0801 28.93 11.4201 28.93C14.4801 28.93 26.9201 28.93 29.9801 28.93C30.2101 28.93 30.4401 28.93 30.6701 28.94C30.6901 28.96 30.7001 28.97 30.7201 28.99C30.7201 29.12 30.7201 29.24 30.7201 29.37V30.49C30.7201 30.62 30.7201 30.74 30.7201 30.87V35.9C30.7201 35.9 30.6901 35.93 30.6701 35.95C29.1901 35.95 27.7001 35.95 26.2201 35.95L25.3201 35.96C24.6001 36 23.8701 35.97 23.1401 35.96C22.0801 35.97 21.0301 35.98 19.9701 35.96H15.9401C15.7601 35.96 15.6601 35.96 15.5601 35.96C14.2401 35.96 12.9101 35.96 11.5901 35.96C11.2401 35.96 11.0501 36.14 11.0401 36.46C11.0401 36.78 11.2301 36.96 11.5701 36.97C11.6501 36.97 11.7401 36.97 11.8201 36.97C22.0701 36.97 32.3201 36.97 42.5701 36.97C42.8301 36.97 43.0901 36.89 43.3401 36.85V36.35C43.1701 36.08 42.9401 35.96 42.6001 35.96C41.6801 35.98 40.7601 35.96 39.8201 35.96V33.92H39.8101V30.75C39.8001 30.68 39.8101 30.6 39.8101 30.52V29.27C39.7801 29.17 39.7901 29.04 39.8201 28.9C40.4801 28.9 41.1601 28.9 41.8401 28.9L41.8701 28.92ZM38.8101 35.97H31.7701V34.49H31.7001V29.14H31.7601V28.93H38.8101V31.94H38.8201V35.95L38.8101 35.97Z" fill="#FEFDFD"/>
<path d="M39.9801 23.05C39.9401 22.97 39.8701 22.88 39.8701 22.8C39.8701 21.33 39.8701 19.86 39.8701 18.38C39.8701 18.3 39.9401 18.21 39.9801 18.13V23.05Z" fill="#010101"/>
<path d="M19.2301 17.57C19.2301 17.57 19.1401 17.6 19.1001 17.62C19.1401 17.6 19.1901 17.59 19.2301 17.57Z" fill="#020202"/>
<path d="M24.8501 21.09C24.8501 20.76 24.8501 20.43 24.8501 20.09C24.9101 20.13 25.0301 20.16 25.0301 20.2C25.0501 20.46 25.0501 20.72 25.0301 20.97C25.0301 21.01 24.9101 21.04 24.8501 21.08V21.09Z" fill="black"/>
<path d="M24.8501 19.07C24.8501 18.91 24.8501 18.74 24.8501 18.58C24.8601 18.57 24.8801 18.54 24.8901 18.54C25.1501 18.61 25.0101 18.82 25.0301 18.96C25.0301 18.99 24.9101 19.03 24.8501 19.07Z" fill="black"/>
<path d="M41.7301 27.69H12.1801C12.1101 27.69 12.0501 27.63 12.0501 27.56C12.0501 27.49 12.1101 27.43 12.1801 27.43H41.7301C41.8001 27.43 41.8601 27.49 41.8601 27.56C41.8601 27.63 41.8001 27.69 41.7301 27.69Z" fill="#00529A"/>
<path d="M21.136 46.056C20.6187 46.056 20.1413 45.936 19.704 45.696C19.272 45.4507 18.928 45.112 18.672 44.68C18.4213 44.2427 18.296 43.752 18.296 43.208C18.296 42.664 18.4213 42.176 18.672 41.744C18.928 41.312 19.272 40.976 19.704 40.736C20.1413 40.4907 20.6187 40.368 21.136 40.368C21.6587 40.368 22.136 40.4907 22.568 40.736C23.0053 40.976 23.3493 41.312 23.6 41.744C23.8507 42.176 23.976 42.664 23.976 43.208C23.976 43.752 23.8507 44.2427 23.6 44.68C23.3493 45.112 23.0053 45.4507 22.568 45.696C22.136 45.936 21.6587 46.056 21.136 46.056ZM21.136 45.264C21.504 45.264 21.832 45.1813 22.12 45.016C22.408 44.8453 22.632 44.6053 22.792 44.296C22.9573 43.9813 23.04 43.6187 23.04 43.208C23.04 42.7973 22.9573 42.4373 22.792 42.128C22.632 41.8187 22.408 41.5813 22.12 41.416C21.832 41.2507 21.504 41.168 21.136 41.168C20.768 41.168 20.44 41.2507 20.152 41.416C19.864 41.5813 19.6373 41.8187 19.472 42.128C19.312 42.4373 19.232 42.7973 19.232 43.208C19.232 43.6187 19.312 43.9813 19.472 44.296C19.6373 44.6053 19.864 44.8453 20.152 45.016C20.44 45.1813 20.768 45.264 21.136 45.264Z" fill="white"/>
<path d="M24.5694 43.208C24.5694 42.664 24.6948 42.176 24.9454 41.744C25.2014 41.312 25.5454 40.976 25.9774 40.736C26.4148 40.4907 26.8921 40.368 27.4094 40.368C28.0014 40.368 28.5268 40.5147 28.9854 40.808C29.4494 41.096 29.7854 41.5067 29.9934 42.04H28.8974C28.7534 41.7467 28.5534 41.528 28.2974 41.384C28.0414 41.24 27.7454 41.168 27.4094 41.168C27.0414 41.168 26.7134 41.2507 26.4254 41.416C26.1374 41.5813 25.9108 41.8187 25.7454 42.128C25.5854 42.4373 25.5054 42.7973 25.5054 43.208C25.5054 43.6187 25.5854 43.9787 25.7454 44.288C25.9108 44.5973 26.1374 44.8373 26.4254 45.008C26.7134 45.1733 27.0414 45.256 27.4094 45.256C27.7454 45.256 28.0414 45.184 28.2974 45.04C28.5534 44.896 28.7534 44.6773 28.8974 44.384H29.9934C29.7854 44.9173 29.4494 45.328 28.9854 45.616C28.5268 45.904 28.0014 46.048 27.4094 46.048C26.8868 46.048 26.4094 45.928 25.9774 45.688C25.5454 45.4427 25.2014 45.104 24.9454 44.672C24.6948 44.24 24.5694 43.752 24.5694 43.208Z" fill="white"/>
<path d="M34.6529 40.44V41.184H33.1729V46H32.2609V41.184H30.7729V40.44H34.6529Z" fill="white"/>
</g>
</svg>
