<svg width="54" height="51" viewBox="0 0 54 51" fill="none" xmlns="http://www.w3.org/2000/svg">
<mask id="mask0_1122_9313" style="mask-type:alpha" maskUnits="userSpaceOnUse" x="0" y="0" width="54" height="51">
<ellipse cx="27" cy="25.5" rx="27" ry="25.5" fill="#00529A"/>
</mask>
<g mask="url(#mask0_1122_9313)">
<ellipse cx="27" cy="25.5" rx="27" ry="25.5" fill="#00529A"/>
<path d="M27.5072 32.3201C25.1433 32.3201 23.17 31.7146 21.2994 30.713C18.7814 29.37 16.6128 27.5207 14.7525 25.2642C14.2078 24.6037 14.2078 24.0203 14.7525 23.3599C16.9828 20.674 19.5933 18.5495 22.7383 17.2396C25.9244 15.9187 29.1003 16.0068 32.235 17.4268C35.1847 18.7587 37.6514 20.7951 39.7686 23.3378C40.3442 24.0313 40.3442 24.6037 39.7686 25.3082C37.3636 28.1702 34.5681 30.4157 31.125 31.6486C29.8711 32.0999 28.5864 32.3421 27.5072 32.3311V32.3201ZM27.3017 18.7257C24.4444 18.7146 22.1422 21.1583 22.1217 24.2185C22.1011 27.2345 24.4547 29.7773 27.2606 29.7773C30.1692 29.7773 32.42 27.3887 32.4303 24.2625C32.4303 21.2024 30.1486 18.7257 27.3017 18.7146V18.7257Z" fill="#FEFDFD"/>
<path d="M27.2914 18.7146C30.1383 18.7257 32.4303 21.2024 32.42 24.2625C32.42 27.3776 30.1589 29.7883 27.2503 29.7773C24.4444 29.7773 22.0908 27.2235 22.1114 24.2185C22.1319 21.1583 24.4342 18.7146 27.2914 18.7257V18.7146ZM29.7375 24.2515C29.7375 22.7434 28.6686 21.5986 27.2708 21.5876C25.8833 21.5876 24.8042 22.7324 24.7939 24.2075C24.7939 25.7155 25.8525 26.8713 27.2503 26.8823C28.6583 26.8823 29.7272 25.7485 29.7375 24.2405V24.2515Z" fill="#00529A"/>
<path d="M29.7375 24.2625C29.7375 25.7595 28.6583 26.9043 27.2503 26.9043C25.8525 26.9043 24.7939 25.7375 24.7939 24.2295C24.7939 22.7434 25.8731 21.6097 27.2708 21.6097C28.6686 21.6097 29.7375 22.7655 29.7375 24.2735V24.2625Z" fill="#FEFDFD"/>
<path d="M8.34944 38C8.15417 38 8 37.8349 8 37.6257V27.0254C8 26.8163 8.15417 26.6511 8.34944 26.6511C8.54472 26.6511 8.69889 26.8163 8.69889 27.0254V37.6257C8.69889 37.8349 8.54472 38 8.34944 38Z" fill="#FEFDFD"/>
<path d="M18.9561 38H8.34944C8.15417 38 8 37.8349 8 37.6257C8 37.4166 8.15417 37.2515 8.34944 37.2515H18.9561C19.1514 37.2515 19.3056 37.4166 19.3056 37.6257C19.3056 37.8349 19.1514 38 18.9561 38Z" fill="#FEFDFD"/>
<path d="M44.6506 38C44.4553 38 44.3011 37.8349 44.3011 37.6257V27.0254C44.3011 26.8163 44.4553 26.6511 44.6506 26.6511C44.8458 26.6511 45 26.8163 45 27.0254V37.6257C45 37.8349 44.8458 38 44.6506 38Z" fill="#FEFDFD"/>
<path d="M44.6506 38H34.0439C33.8486 38 33.6944 37.8349 33.6944 37.6257C33.6944 37.4166 33.8486 37.2515 34.0439 37.2515H44.6506C44.8458 37.2515 45 37.4166 45 37.6257C45 37.8349 44.8458 38 44.6506 38Z" fill="#FEFDFD"/>
<path d="M8.34944 23.3599C8.15417 23.3599 8 23.1947 8 22.9856V12.3743C8 12.1651 8.15417 12 8.34944 12C8.54472 12 8.69889 12.1651 8.69889 12.3743V22.9746C8.69889 23.1837 8.54472 23.3489 8.34944 23.3489V23.3599Z" fill="#FEFDFD"/>
<path d="M18.9561 12.7595H8.34944C8.15417 12.7595 8 12.5944 8 12.3853C8 12.1761 8.15417 12.011 8.34944 12.011H18.9561C19.1514 12.011 19.3056 12.1761 19.3056 12.3853C19.3056 12.5944 19.1514 12.7595 18.9561 12.7595Z" fill="#FEFDFD"/>
<path d="M44.6506 23.3599C44.4553 23.3599 44.3011 23.1947 44.3011 22.9856V12.3743C44.3011 12.1651 44.4553 12 44.6506 12C44.8458 12 45 12.1651 45 12.3743V22.9746C45 23.1837 44.8458 23.3489 44.6506 23.3489V23.3599Z" fill="#FEFDFD"/>
<path d="M44.6506 12.7595H34.0439C33.8486 12.7595 33.6944 12.5944 33.6944 12.3853C33.6944 12.1761 33.8486 12.011 34.0439 12.011H44.6506C44.8458 12.011 45 12.1761 45 12.3853C45 12.5944 44.8458 12.7595 44.6506 12.7595Z" fill="#FEFDFD"/>
</g>
</svg>
