<svg width="54" height="51" viewBox="0 0 54 51" fill="none" xmlns="http://www.w3.org/2000/svg">
<mask id="mask0_1122_9264" style="mask-type:alpha" maskUnits="userSpaceOnUse" x="0" y="0" width="54" height="51">
<ellipse cx="27" cy="25.5" rx="27" ry="25.5" fill="#00529A"/>
</mask>
<g mask="url(#mask0_1122_9264)">
<ellipse cx="27" cy="25.5" rx="27" ry="25.5" fill="#00529A"/>
<path d="M29.822 25.2715C30.1508 25.5937 30.4824 25.9129 30.8112 26.2351C31.6389 27.0507 32.4636 27.8692 33.2884 28.6848C33.3471 28.7429 33.4117 28.798 33.4528 28.8677C33.5525 29.0331 33.5408 29.2015 33.4087 29.3408C33.2649 29.4888 33.0888 29.5091 32.9127 29.4046C32.8364 29.3611 32.7718 29.2914 32.7072 29.2276C31.6183 28.1507 30.5265 27.0739 29.4405 25.9942C29.3788 25.9332 29.3465 25.8462 29.3025 25.7707C29.2732 25.7939 29.2468 25.82 29.2174 25.8433C29.4405 26.3773 29.6635 26.9114 29.8866 27.4454C29.9981 27.7096 30.1126 27.9737 30.2183 28.2407C30.3151 28.4874 30.2271 28.708 30.0128 28.7922C29.7956 28.8793 29.5814 28.7806 29.4757 28.531C29.1704 27.8141 28.874 27.0971 28.5717 26.3773C28.5394 26.3019 28.5071 26.2293 28.4249 26.1596C28.4249 26.2409 28.4249 26.3251 28.4249 26.4064C28.4249 27.9302 28.4249 29.454 28.4249 30.9778C28.4249 31.059 28.4337 31.1432 28.4191 31.2216C28.3809 31.4335 28.2459 31.5612 28.0258 31.5612C27.8086 31.5612 27.6706 31.4364 27.6324 31.2245C27.6178 31.1461 27.6266 31.062 27.6266 30.9807C27.6266 29.4656 27.6266 27.9505 27.6266 26.4354C27.6266 26.3454 27.6266 26.2583 27.6266 26.1683C27.6119 26.1625 27.5972 26.1567 27.5855 26.1509C27.5503 26.2264 27.5121 26.3019 27.4798 26.3773C27.1834 27.0797 26.8899 27.7821 26.5934 28.4845C26.4701 28.7748 26.2706 28.8822 26.0387 28.7922C25.8039 28.6993 25.7334 28.4671 25.8567 28.1711C26.1502 27.4687 26.4437 26.7663 26.7402 26.0639C26.7725 25.9913 26.8018 25.9158 26.8312 25.8433C26.8018 25.82 26.7754 25.7939 26.746 25.7707C26.702 25.8462 26.6727 25.9361 26.611 25.9942C25.525 27.0739 24.4332 28.1507 23.3443 29.2276C23.2797 29.2914 23.2181 29.3611 23.1417 29.4046C22.9656 29.5091 22.7895 29.4946 22.6457 29.3466C22.5019 29.1985 22.4931 29.0244 22.6076 28.8532C22.6516 28.7864 22.7162 28.7312 22.7749 28.6732C23.8638 27.5964 24.9527 26.5166 26.0446 25.4427C26.1033 25.3847 26.1708 25.3353 26.2324 25.2831C26.2207 25.2657 26.2089 25.2454 26.2001 25.2279C26.1385 25.2512 26.0768 25.2686 26.0181 25.2947C25.2932 25.5907 24.5653 25.8897 23.8403 26.1858C23.5497 26.3048 23.3237 26.2438 23.2269 26.0232C23.1212 25.7852 23.2298 25.582 23.538 25.4543C24.2395 25.1641 24.9439 24.8796 25.6454 24.5894C25.7246 24.5575 25.8039 24.5197 25.8773 24.4414H25.619C24.078 24.4414 22.5371 24.4414 20.9962 24.4414C20.8905 24.4414 20.779 24.4385 20.6792 24.4065C20.4796 24.3427 20.3945 24.1859 20.4238 23.9828C20.4503 23.7883 20.5735 23.678 20.7702 23.6548C20.8524 23.6461 20.9345 23.649 21.0197 23.649C22.5518 23.649 24.0839 23.649 25.619 23.649H25.8831L25.8949 23.6083C25.8332 23.5764 25.7745 23.5416 25.7129 23.5184C24.9879 23.2194 24.2571 22.9292 23.538 22.6215C23.4147 22.5693 23.268 22.4532 23.2327 22.3371C23.1975 22.2239 23.2503 22.0149 23.3384 21.951C23.447 21.8727 23.6583 21.8378 23.7875 21.8872C24.5124 22.16 25.2286 22.4648 25.9477 22.7579C26.0211 22.7869 26.0974 22.8102 26.1737 22.8363C26.206 22.8015 26.2383 22.7666 26.2706 22.7289C26.1884 22.6912 26.0915 22.6708 26.0299 22.6128C24.941 21.5447 23.8579 20.4737 22.7749 19.3997C22.7162 19.3417 22.6545 19.2836 22.6105 19.2169C22.5019 19.0427 22.5166 18.8686 22.6663 18.7234C22.8159 18.5812 22.9921 18.5667 23.1652 18.6828C23.2327 18.7293 23.2885 18.7902 23.3472 18.8483C24.4361 19.9251 25.528 21.0019 26.6169 22.0816C26.6815 22.1455 26.7314 22.221 26.7871 22.2935L26.8429 22.2529C26.8165 22.1803 26.7901 22.1078 26.7607 22.0352C26.4584 21.3096 26.1532 20.5839 25.8508 19.8583C25.7452 19.6029 25.8127 19.391 26.0211 19.2923C26.25 19.182 26.4731 19.2836 26.5905 19.5623C26.8928 20.2705 27.1863 20.9816 27.4857 21.6927C27.5209 21.774 27.5561 21.8552 27.6383 21.9307C27.6383 21.8465 27.6383 21.7624 27.6383 21.6811C27.6383 16.9878 27.6383 12.2944 27.6383 7.59819C27.6383 7.19184 27.7587 7.00899 28.0258 7.00028C28.3046 6.99157 28.4367 7.18604 28.4367 7.6011C28.4367 12.2857 28.4367 16.9732 28.4367 21.6579V21.9249C28.4367 21.9249 28.4601 21.9336 28.4748 21.9365C28.51 21.861 28.5511 21.7856 28.5834 21.7072C28.8799 21.0048 29.1734 20.3024 29.4698 19.6C29.596 19.3039 29.8132 19.1908 30.0451 19.2952C30.2652 19.3939 30.3269 19.6174 30.2095 19.9048C29.8866 20.6826 29.5579 21.4576 29.2644 22.2616C29.3231 22.2064 29.3847 22.1542 29.4434 22.0991C30.5382 21.0164 31.6359 19.9338 32.7307 18.8512C32.7894 18.7931 32.8452 18.7293 32.9127 18.6857C33.0859 18.5696 33.262 18.5841 33.4117 18.7264C33.5614 18.8686 33.576 19.0427 33.4704 19.2169C33.4234 19.2923 33.353 19.3562 33.2913 19.4171C32.2024 20.494 31.1135 21.5737 30.0216 22.6476C29.96 22.7086 29.869 22.7434 29.7927 22.7898C29.8162 22.816 29.8396 22.845 29.8631 22.8711C30.4795 22.6186 31.0959 22.3661 31.7122 22.1136C31.903 22.0352 32.0938 21.9539 32.2875 21.8814C32.5429 21.7856 32.7659 21.861 32.8511 22.0729C32.9391 22.2877 32.8481 22.5025 32.5957 22.607C31.8414 22.9205 31.0841 23.2281 30.3269 23.5387C30.2828 23.5561 30.2388 23.5822 30.1977 23.6519C30.2799 23.6519 30.3621 23.6519 30.4443 23.6519C32.0116 23.6519 33.576 23.6519 35.1434 23.6519C35.2402 23.6519 35.3782 23.6345 35.4281 23.6896C35.5279 23.7912 35.6218 23.9334 35.6394 24.0698C35.6629 24.244 35.5455 24.3833 35.3606 24.4239C35.2666 24.4443 35.1639 24.4414 35.0641 24.4414C33.532 24.4414 31.9999 24.4414 30.4648 24.4414H30.1977C30.1977 24.4414 30.1889 24.4704 30.186 24.4849C30.3856 24.5691 30.5852 24.6532 30.7877 24.7374C31.3923 24.9841 31.994 25.2308 32.5986 25.4805C32.7982 25.5617 32.901 25.7039 32.8716 25.9216C32.8452 26.1074 32.7278 26.2206 32.5487 26.2438C32.449 26.2554 32.3374 26.2235 32.2406 26.1858C31.5273 25.8984 30.817 25.6053 30.1067 25.315C30.0334 25.2831 29.957 25.257 29.8807 25.2279C29.869 25.2425 29.8573 25.2599 29.8455 25.2744L29.822 25.2715ZM27.6236 22.9379C27.0278 23.1527 26.7108 23.7477 26.8546 24.3137C27.0073 24.9058 27.5679 25.2918 28.1784 25.2192C28.7859 25.1467 29.2291 24.6155 29.2115 23.9799C29.1969 23.4661 28.8417 23.0046 28.422 22.9698C28.422 23.2484 28.422 23.5271 28.422 23.8028C28.422 24.2411 28.2958 24.4385 28.0169 24.4327C27.7469 24.4268 27.6236 24.2382 27.6236 23.8144C27.6236 23.53 27.6236 23.2455 27.6236 22.9379Z" fill="#FEFDFD"/>
<path d="M27.6236 22.9379C27.6236 23.2455 27.6236 23.53 27.6236 23.8144C27.6236 24.2353 27.744 24.4268 28.0169 24.4327C28.2958 24.4385 28.422 24.2411 28.422 23.8028C28.422 23.5242 28.422 23.2484 28.422 22.9698C28.8417 23.0075 29.1969 23.4661 29.2115 23.9799C29.2291 24.6155 28.7859 25.1467 28.1784 25.2192C27.5679 25.2918 27.0073 24.9058 26.8546 24.3137C26.7108 23.7477 27.0278 23.1527 27.6236 22.9379Z" fill="white"/>
<path d="M48.9648 24.1482C46.0003 20.3692 42.2698 17.5915 37.8026 15.7687C37.6558 15.7078 37.512 15.641 37.3242 15.5597C37.4474 15.4407 35.9006 15.0895 35.6629 15.017C31.6154 13.7689 27.4916 13.4554 23.309 14.1143C16.4292 15.1969 10.7908 18.4361 6.36175 23.7477C5.8804 24.3253 5.8804 24.4704 6.35588 25.0364C11.2487 30.8675 17.4946 34.2054 25.1347 34.8845C31.2867 35.4302 36.9954 34.0399 42.2082 30.7543C44.838 29.097 47.1186 27.0478 49 24.5807V24.1656C49 24.1656 48.9706 24.1598 48.9618 24.1482H48.9648ZM7.44187 24.3949C11.0785 20.0847 15.6073 17.2374 21.0813 15.8471C18.3076 18.0559 16.7843 20.8945 16.7931 24.4239C16.8019 27.9331 18.3282 30.7543 21.093 32.9457C15.6161 31.5554 11.0902 28.708 7.44187 24.3949ZM33.9136 32.9166C34.1102 32.7512 34.3069 32.5858 34.5035 32.4203C38.3456 29.1753 39.3523 23.6287 36.8956 19.2604C36.7342 18.976 36.5405 18.7525 36.1765 18.7989C35.7069 18.8599 35.5455 19.3039 35.7421 19.7916C36.1061 20.6855 36.5376 21.5679 36.7518 22.4996C37.9376 27.6457 34.2423 32.8876 28.9503 33.6394C23.6613 34.3882 18.9123 30.8965 18.1256 25.6778C17.3508 20.5491 21.1987 15.6149 26.4379 15.1098C29.2967 14.8341 32.0967 15.2927 34.8469 16.0677C34.8675 16.0735 36.4113 16.564 36.608 16.6308C40.4559 17.9282 45.1139 21.2196 47.5589 24.4065C43.9458 28.6964 39.414 31.5467 33.9136 32.9137V32.9166Z" fill="#FEFDFD"/>
<path d="M23.432 46.056C23.0587 46.056 22.7227 45.992 22.424 45.864C22.1253 45.7307 21.8907 45.544 21.72 45.304C21.5493 45.064 21.464 44.784 21.464 44.464H22.44C22.4613 44.704 22.5547 44.9013 22.72 45.056C22.8907 45.2107 23.128 45.288 23.432 45.288C23.7467 45.288 23.992 45.2133 24.168 45.064C24.344 44.9093 24.432 44.712 24.432 44.472C24.432 44.2853 24.376 44.1333 24.264 44.016C24.1573 43.8987 24.0213 43.808 23.856 43.744C23.696 43.68 23.472 43.6107 23.184 43.536C22.8213 43.44 22.5253 43.344 22.296 43.248C22.072 43.1467 21.88 42.992 21.72 42.784C21.56 42.576 21.48 42.2987 21.48 41.952C21.48 41.632 21.56 41.352 21.72 41.112C21.88 40.872 22.104 40.688 22.392 40.56C22.68 40.432 23.0133 40.368 23.392 40.368C23.9307 40.368 24.3707 40.504 24.712 40.776C25.0587 41.0427 25.2507 41.4107 25.288 41.88H24.28C24.264 41.6773 24.168 41.504 23.992 41.36C23.816 41.216 23.584 41.144 23.296 41.144C23.0347 41.144 22.8213 41.2107 22.656 41.344C22.4907 41.4773 22.408 41.6693 22.408 41.92C22.408 42.0907 22.4587 42.232 22.56 42.344C22.6667 42.4507 22.8 42.536 22.96 42.6C23.12 42.664 23.3387 42.7333 23.616 42.808C23.984 42.9093 24.2827 43.0107 24.512 43.112C24.7467 43.2133 24.944 43.3707 25.104 43.584C25.2693 43.792 25.352 44.072 25.352 44.424C25.352 44.7067 25.2747 44.9733 25.12 45.224C24.9707 45.4747 24.7493 45.6773 24.456 45.832C24.168 45.9813 23.8267 46.056 23.432 46.056Z" fill="white"/>
<path d="M27.3401 45.264H29.2201V46H26.4281V40.44H27.3401V45.264Z" fill="white"/>
<path d="M33.5748 40.44V41.184H32.0948V46H31.1828V41.184H29.6948V40.44H33.5748Z" fill="white"/>
</g>
</svg>
