<svg width="54" height="51" viewBox="0 0 54 51" fill="none" xmlns="http://www.w3.org/2000/svg">
<mask id="mask0_1122_9273" style="mask-type:alpha" maskUnits="userSpaceOnUse" x="0" y="0" width="54" height="51">
<ellipse cx="27" cy="25.5" rx="27" ry="25.5" fill="#00529A"/>
</mask>
<g mask="url(#mask0_1122_9273)">
<ellipse cx="27" cy="25.5" rx="27" ry="25.5" fill="#00529A"/>
<path d="M33.9919 16.7497C31.9843 16.0989 29.9281 15.7325 27.8232 15.6121C22.9639 15.3223 18.3861 16.3231 14.0951 18.6419C10.9133 20.3645 8.22939 22.6943 6 25.5545V25.9537C7.35279 27.7857 8.94367 29.3772 10.751 30.7334C16.8007 35.2725 23.57 36.8804 30.9724 35.546C37.2061 34.4194 42.2872 31.253 46.286 26.2982C46.6323 25.8662 46.6269 25.6802 46.286 25.2427C44.6627 23.181 42.7633 21.4255 40.6043 19.9489C39.0242 18.8716 37.3414 17.9911 35.5232 17.2692M7.37984 25.7459C10.778 21.6278 15.0474 18.8825 20.2043 17.5426C14.7552 21.7919 14.8689 29.935 20.2205 33.9928C16.9468 33.8397 9.53889 29.0928 7.38525 25.7513L7.37984 25.7459ZM33.3588 17.9255L34.8252 18.3083C38.9322 19.8505 42.3737 22.3443 45.1984 25.7787C41.7785 29.9295 37.4983 32.6803 32.3144 33.9928C32.5038 33.8288 32.6932 33.6702 32.8826 33.5061C36.4972 30.3889 37.4496 25.0185 35.1282 20.8185C34.9821 20.556 34.8035 20.3536 34.4843 20.3755C34.0243 20.4083 33.8566 20.8622 34.0514 21.3489C34.3977 22.2239 34.8144 23.088 35.0146 23.9958C36.1022 28.9178 32.612 33.971 27.6771 34.6819C22.6609 35.4038 18.24 32.1006 17.4446 27.042C16.7141 22.388 20.0257 17.7176 24.6198 16.9083C26.189 16.6293 27.7582 16.7332 29.3112 16.952C30.572 17.127 31.8166 17.4497 33.0666 17.7122" fill="#FEFDFD"/>
<path d="M42.2224 10.7176C42.4551 10.4824 42.6932 10.2527 42.9313 10.023C43.0828 9.88082 43.3317 9.77691 43.5427 9.76051C44.0676 9.72223 44.5979 9.74957 45.1228 9.7441C45.5935 9.7441 46.0156 9.59097 46.3457 9.26285C48.0664 7.5347 49.7926 5.80655 51.4917 4.05653C52.1951 3.32918 52.1519 2.22448 51.4646 1.48619C51.1508 1.14712 50.8207 0.813521 50.4852 0.49633C49.7764 -0.159928 48.7104 -0.165397 48.0015 0.479923C47.7364 0.720551 47.4874 0.977586 47.2439 1.24009C46.9896 1.51353 46.9788 1.86353 47.1952 2.09869C47.4279 2.35026 47.7851 2.35573 48.0773 2.08776C48.2991 1.87994 48.5047 1.65025 48.7266 1.44244C49.0567 1.13071 49.4192 1.12524 49.7439 1.43697C50.0036 1.68306 50.2525 1.9401 50.5015 2.19713C50.9181 2.62917 50.9181 2.96277 50.4906 3.40027C49.5437 4.36278 48.5859 5.3253 47.6335 6.28781C47.5686 6.35343 47.4983 6.40812 47.4604 6.43547C46.8435 5.81202 46.2429 5.19951 45.5827 4.52685C45.7613 4.36825 45.9831 4.19872 46.1779 4.00184C46.5134 3.66824 46.5513 3.31824 46.3024 3.05574C46.0318 2.76589 45.6964 2.7987 45.3392 3.15964C44.5438 3.95809 43.7592 4.76748 42.9583 5.56045C42.5254 5.98702 42.3306 6.50109 42.3306 7.10266C42.3306 7.59485 42.3523 8.09252 42.3198 8.58471C42.309 8.77612 42.2278 9.00581 42.1034 9.13706C41.7408 9.51988 41.3674 9.89723 40.9941 10.2746C41.3945 10.455 41.8057 10.5972 42.2278 10.7176H42.2224ZM43.5319 6.9386C43.5373 6.79094 43.6185 6.62141 43.7159 6.51203C44.0351 6.15656 44.376 5.82843 44.6791 5.5167C45.3068 6.15109 45.9074 6.7636 46.5459 7.41438C46.2266 7.72064 45.8966 8.06517 45.5448 8.38236C45.442 8.47533 45.2905 8.54096 45.1552 8.54643C44.6304 8.56284 44.1055 8.5519 43.5211 8.5519C43.5211 7.97767 43.5102 7.4636 43.5319 6.94407V6.9386Z" fill="#FEFDFD"/>
<path d="M26.3136 25.7677L41.2809 10.105L42.3414 10.5316L26.3136 25.7677Z" fill="#FEFDFD"/>
<path d="M26.3515 25.806L26.2757 25.7295L41.27 10.0449L42.4388 10.5152L26.3515 25.806ZM41.2971 10.1707L27.8883 24.2037L42.244 10.5535L41.2971 10.1707Z" fill="#FEFDFD"/>
<path d="M26.687 28.6553C25.1394 28.6553 23.884 27.3865 23.884 25.8224C23.884 24.2583 25.1394 22.9896 26.687 22.9896C28.2346 22.9896 29.49 24.2583 29.49 25.8224C29.49 27.3865 28.2346 28.6553 26.687 28.6553ZM26.687 23.5255C25.4316 23.5255 24.4143 24.5591 24.4143 25.8224C24.4143 27.0857 25.437 28.1193 26.687 28.1193C27.937 28.1193 28.9597 27.0857 28.9597 25.8224C28.9597 24.5591 27.937 23.5255 26.687 23.5255Z" fill="#FEFDFD"/>
</g>
</svg>
