<svg width="54" height="51" viewBox="0 0 54 51" fill="none" xmlns="http://www.w3.org/2000/svg">
<mask id="mask0_1122_9315" style="mask-type:alpha" maskUnits="userSpaceOnUse" x="0" y="0" width="54" height="51">
<ellipse cx="27" cy="25.5" rx="27" ry="25.5" fill="#00529A"/>
</mask>
<g mask="url(#mask0_1122_9315)">
<ellipse cx="27" cy="25.5" rx="27" ry="25.5" fill="#00529A"/>
<path d="M23.136 46.056C22.6187 46.056 22.1413 45.936 21.704 45.696C21.272 45.4507 20.928 45.112 20.672 44.68C20.4213 44.2427 20.296 43.752 20.296 43.208C20.296 42.664 20.4213 42.176 20.672 41.744C20.928 41.312 21.272 40.976 21.704 40.736C22.1413 40.4907 22.6187 40.368 23.136 40.368C23.6587 40.368 24.136 40.4907 24.568 40.736C25.0053 40.976 25.3493 41.312 25.6 41.744C25.8507 42.176 25.976 42.664 25.976 43.208C25.976 43.752 25.8507 44.2427 25.6 44.68C25.3493 45.112 25.0053 45.4507 24.568 45.696C24.136 45.936 23.6587 46.056 23.136 46.056ZM23.136 45.264C23.504 45.264 23.832 45.1813 24.12 45.016C24.408 44.8453 24.632 44.6053 24.792 44.296C24.9573 43.9813 25.04 43.6187 25.04 43.208C25.04 42.7973 24.9573 42.4373 24.792 42.128C24.632 41.8187 24.408 41.5813 24.12 41.416C23.832 41.2507 23.504 41.168 23.136 41.168C22.768 41.168 22.44 41.2507 22.152 41.416C21.864 41.5813 21.6373 41.8187 21.472 42.128C21.312 42.4373 21.232 42.7973 21.232 43.208C21.232 43.6187 21.312 43.9813 21.472 44.296C21.6373 44.6053 21.864 44.8453 22.152 45.016C22.44 45.1813 22.768 45.264 23.136 45.264Z" fill="white"/>
<path d="M26.5694 43.208C26.5694 42.664 26.6948 42.176 26.9454 41.744C27.2014 41.312 27.5454 40.976 27.9774 40.736C28.4148 40.4907 28.8921 40.368 29.4094 40.368C30.0014 40.368 30.5268 40.5147 30.9854 40.808C31.4494 41.096 31.7854 41.5067 31.9934 42.04H30.8974C30.7534 41.7467 30.5534 41.528 30.2974 41.384C30.0414 41.24 29.7454 41.168 29.4094 41.168C29.0414 41.168 28.7134 41.2507 28.4254 41.416C28.1374 41.5813 27.9108 41.8187 27.7454 42.128C27.5854 42.4373 27.5054 42.7973 27.5054 43.208C27.5054 43.6187 27.5854 43.9787 27.7454 44.288C27.9108 44.5973 28.1374 44.8373 28.4254 45.008C28.7134 45.1733 29.0414 45.256 29.4094 45.256C29.7454 45.256 30.0414 45.184 30.2974 45.04C30.5534 44.896 30.7534 44.6773 30.8974 44.384H31.9934C31.7854 44.9173 31.4494 45.328 30.9854 45.616C30.5268 45.904 30.0014 46.048 29.4094 46.048C28.8868 46.048 28.4094 45.928 27.9774 45.688C27.5454 45.4427 27.2014 45.104 26.9454 44.672C26.6948 44.24 26.5694 43.752 26.5694 43.208Z" fill="white"/>
<path d="M36.6529 40.44V41.184H35.1729V46H34.2609V41.184H32.7729V40.44H36.6529Z" fill="white"/>
<path d="M28.5072 31.3201C26.1433 31.3201 24.17 30.7146 22.2994 29.713C19.7814 28.37 17.6128 26.5207 15.7525 24.2642C15.2078 23.6037 15.2078 23.0203 15.7525 22.3599C17.9828 19.674 20.5933 17.5495 23.7383 16.2396C26.9244 14.9187 30.1003 15.0068 33.235 16.4268C36.1847 17.7587 38.6514 19.7951 40.7686 22.3378C41.3442 23.0313 41.3442 23.6037 40.7686 24.3082C38.3636 27.1702 35.5681 29.4157 32.125 30.6486C30.8711 31.0999 29.5864 31.3421 28.5072 31.3311V31.3201ZM28.3017 17.7257C25.4444 17.7146 23.1422 20.1583 23.1217 23.2185C23.1011 26.2345 25.4547 28.7773 28.2606 28.7773C31.1692 28.7773 33.42 26.3887 33.4303 23.2625C33.4303 20.2024 31.1486 17.7257 28.3017 17.7146V17.7257Z" fill="#FEFDFD"/>
<path d="M28.2914 17.7146C31.1383 17.7257 33.4303 20.2024 33.42 23.2625C33.42 26.3776 31.1589 28.7883 28.2503 28.7773C25.4444 28.7773 23.0908 26.2235 23.1114 23.2185C23.1319 20.1583 25.4342 17.7146 28.2914 17.7257V17.7146ZM30.7375 23.2515C30.7375 21.7434 29.6686 20.5986 28.2708 20.5876C26.8833 20.5876 25.8042 21.7324 25.7939 23.2075C25.7939 24.7155 26.8525 25.8713 28.2503 25.8823C29.6583 25.8823 30.7272 24.7485 30.7375 23.2405V23.2515Z" fill="#00529A"/>
<path d="M30.7375 23.2625C30.7375 24.7595 29.6583 25.9043 28.2503 25.9043C26.8525 25.9043 25.7939 24.7375 25.7939 23.2295C25.7939 21.7434 26.8731 20.6097 28.2708 20.6097C29.6686 20.6097 30.7375 21.7655 30.7375 23.2735V23.2625Z" fill="#FEFDFD"/>
<path d="M9.34944 37C9.15417 37 9 36.8349 9 36.6257V26.0254C9 25.8163 9.15417 25.6511 9.34944 25.6511C9.54472 25.6511 9.69889 25.8163 9.69889 26.0254V36.6257C9.69889 36.8349 9.54472 37 9.34944 37Z" fill="#FEFDFD"/>
<path d="M19.9561 37H9.34944C9.15417 37 9 36.8349 9 36.6257C9 36.4166 9.15417 36.2515 9.34944 36.2515H19.9561C20.1514 36.2515 20.3056 36.4166 20.3056 36.6257C20.3056 36.8349 20.1514 37 19.9561 37Z" fill="#FEFDFD"/>
<path d="M45.6506 37C45.4553 37 45.3011 36.8349 45.3011 36.6257V26.0254C45.3011 25.8163 45.4553 25.6511 45.6506 25.6511C45.8458 25.6511 46 25.8163 46 26.0254V36.6257C46 36.8349 45.8458 37 45.6506 37Z" fill="#FEFDFD"/>
<path d="M45.6506 37H35.0439C34.8486 37 34.6944 36.8349 34.6944 36.6257C34.6944 36.4166 34.8486 36.2515 35.0439 36.2515H45.6506C45.8458 36.2515 46 36.4166 46 36.6257C46 36.8349 45.8458 37 45.6506 37Z" fill="#FEFDFD"/>
<path d="M9.34944 22.3599C9.15417 22.3599 9 22.1947 9 21.9856V11.3743C9 11.1651 9.15417 11 9.34944 11C9.54472 11 9.69889 11.1651 9.69889 11.3743V21.9746C9.69889 22.1837 9.54472 22.3489 9.34944 22.3489V22.3599Z" fill="#FEFDFD"/>
<path d="M19.9561 11.7595H9.34944C9.15417 11.7595 9 11.5944 9 11.3853C9 11.1761 9.15417 11.011 9.34944 11.011H19.9561C20.1514 11.011 20.3056 11.1761 20.3056 11.3853C20.3056 11.5944 20.1514 11.7595 19.9561 11.7595Z" fill="#FEFDFD"/>
<path d="M45.6506 22.3599C45.4553 22.3599 45.3011 22.1947 45.3011 21.9856V11.3743C45.3011 11.1651 45.4553 11 45.6506 11C45.8458 11 46 11.1651 46 11.3743V21.9746C46 22.1837 45.8458 22.3489 45.6506 22.3489V22.3599Z" fill="#FEFDFD"/>
<path d="M45.6506 11.7595H35.0439C34.8486 11.7595 34.6944 11.5944 34.6944 11.3853C34.6944 11.1761 34.8486 11.011 35.0439 11.011H45.6506C45.8458 11.011 46 11.1761 46 11.3853C46 11.5944 45.8458 11.7595 45.6506 11.7595Z" fill="#FEFDFD"/>
</g>
</svg>
