<svg width="60" height="60" viewBox="0 0 60 60" fill="none" xmlns="http://www.w3.org/2000/svg">
<g clip-path="url(#clip0_23_2431)">
<circle cx="30" cy="30" r="30" fill="#FEFDFD"/>
<path d="M29.5 45.9837C29.5 45.9837 29.3737 45.9511 29.3421 45.886L20.8 32.3163C19.6316 30.4593 19 28.309 19 26.0935C19 19.9848 23.7053 15 29.5 15C35.2947 15 40 19.9848 40 26.1098C40 28.2764 39.4 30.3941 38.2789 32.2023C38.2789 32.2186 38.2474 32.2512 38.2474 32.2675C38.2474 32.2838 38.2474 32.3001 38.2474 32.3001L29.6895 45.9023C29.6895 45.9023 29.5947 46 29.5316 46L29.5 45.9837ZM29.5 20.2291C26.4368 20.2291 23.9579 22.8681 23.9579 26.0935C23.9579 29.319 26.4526 31.9743 29.5 31.9743C32.5474 31.9743 35.0421 29.3353 35.0421 26.0935C35.0421 22.8518 32.5474 20.2291 29.5 20.2291Z" fill="#00529A"/>
</g>
<defs>
<clipPath id="clip0_23_2431">
<rect width="60" height="60" fill="white"/>
</clipPath>
</defs>
</svg>
