<svg width="55" height="51" viewBox="0 0 55 51" fill="none" xmlns="http://www.w3.org/2000/svg">
<mask id="mask0_1122_9277" style="mask-type:alpha" maskUnits="userSpaceOnUse" x="0" y="0" width="55" height="51">
<ellipse cx="27.5" cy="25.5" rx="27.5" ry="25.5" fill="#00529A"/>
</mask>
<g mask="url(#mask0_1122_9277)">
<ellipse cx="27.5" cy="25.5" rx="27.5" ry="25.5" fill="#00529A"/>
<path d="M29.822 23.2715C30.1508 23.5937 30.4824 23.9129 30.8112 24.2351C31.6389 25.0507 32.4636 25.8692 33.2884 26.6848C33.3471 26.7429 33.4117 26.798 33.4528 26.8677C33.5525 27.0331 33.5408 27.2015 33.4087 27.3408C33.2649 27.4888 33.0888 27.5091 32.9127 27.4046C32.8364 27.3611 32.7718 27.2914 32.7072 27.2276C31.6183 26.1507 30.5265 25.0739 29.4405 23.9942C29.3788 23.9332 29.3465 23.8462 29.3025 23.7707C29.2732 23.7939 29.2468 23.82 29.2174 23.8433C29.4405 24.3773 29.6635 24.9114 29.8866 25.4454C29.9981 25.7096 30.1126 25.9737 30.2183 26.2407C30.3151 26.4874 30.2271 26.708 30.0128 26.7922C29.7956 26.8793 29.5814 26.7806 29.4757 26.531C29.1704 25.8141 28.874 25.0971 28.5717 24.3773C28.5394 24.3019 28.5071 24.2293 28.4249 24.1596C28.4249 24.2409 28.4249 24.3251 28.4249 24.4064C28.4249 25.9302 28.4249 27.454 28.4249 28.9778C28.4249 29.059 28.4337 29.1432 28.4191 29.2216C28.3809 29.4335 28.2459 29.5612 28.0258 29.5612C27.8086 29.5612 27.6706 29.4364 27.6324 29.2245C27.6178 29.1461 27.6266 29.062 27.6266 28.9807C27.6266 27.4656 27.6266 25.9505 27.6266 24.4354C27.6266 24.3454 27.6266 24.2583 27.6266 24.1683C27.6119 24.1625 27.5972 24.1567 27.5855 24.1509C27.5503 24.2264 27.5121 24.3019 27.4798 24.3773C27.1834 25.0797 26.8899 25.7821 26.5934 26.4845C26.4701 26.7748 26.2706 26.8822 26.0387 26.7922C25.8039 26.6993 25.7334 26.4671 25.8567 26.1711C26.1502 25.4687 26.4437 24.7663 26.7402 24.0639C26.7725 23.9913 26.8018 23.9158 26.8312 23.8433C26.8018 23.82 26.7754 23.7939 26.746 23.7707C26.702 23.8462 26.6727 23.9361 26.611 23.9942C25.525 25.0739 24.4332 26.1507 23.3443 27.2276C23.2797 27.2914 23.2181 27.3611 23.1417 27.4046C22.9656 27.5091 22.7895 27.4946 22.6457 27.3466C22.5019 27.1985 22.4931 27.0244 22.6076 26.8532C22.6516 26.7864 22.7162 26.7312 22.7749 26.6732C23.8638 25.5964 24.9527 24.5166 26.0446 23.4427C26.1033 23.3847 26.1708 23.3353 26.2324 23.2831C26.2207 23.2657 26.2089 23.2454 26.2001 23.2279C26.1385 23.2512 26.0768 23.2686 26.0181 23.2947C25.2932 23.5907 24.5653 23.8897 23.8403 24.1858C23.5497 24.3048 23.3237 24.2438 23.2269 24.0232C23.1212 23.7852 23.2298 23.582 23.538 23.4543C24.2395 23.1641 24.9439 22.8796 25.6454 22.5894C25.7246 22.5575 25.8039 22.5197 25.8773 22.4414H25.619C24.078 22.4414 22.5371 22.4414 20.9962 22.4414C20.8905 22.4414 20.779 22.4385 20.6792 22.4065C20.4796 22.3427 20.3945 22.1859 20.4238 21.9828C20.4503 21.7883 20.5735 21.678 20.7702 21.6548C20.8524 21.6461 20.9345 21.649 21.0197 21.649C22.5518 21.649 24.0839 21.649 25.619 21.649H25.8831L25.8949 21.6083C25.8332 21.5764 25.7745 21.5416 25.7129 21.5184C24.9879 21.2194 24.2571 20.9292 23.538 20.6215C23.4147 20.5693 23.268 20.4532 23.2327 20.3371C23.1975 20.2239 23.2503 20.0149 23.3384 19.951C23.447 19.8727 23.6583 19.8378 23.7875 19.8872C24.5124 20.16 25.2286 20.4648 25.9477 20.7579C26.0211 20.7869 26.0974 20.8102 26.1737 20.8363C26.206 20.8015 26.2383 20.7666 26.2706 20.7289C26.1884 20.6912 26.0915 20.6708 26.0299 20.6128C24.941 19.5447 23.8579 18.4737 22.7749 17.3997C22.7162 17.3417 22.6545 17.2836 22.6105 17.2169C22.5019 17.0427 22.5166 16.8686 22.6663 16.7234C22.8159 16.5812 22.9921 16.5667 23.1652 16.6828C23.2327 16.7293 23.2885 16.7902 23.3472 16.8483C24.4361 17.9251 25.528 19.0019 26.6169 20.0816C26.6815 20.1455 26.7314 20.221 26.7871 20.2935L26.8429 20.2529C26.8165 20.1803 26.7901 20.1078 26.7607 20.0352C26.4584 19.3096 26.1532 18.5839 25.8508 17.8583C25.7452 17.6029 25.8127 17.391 26.0211 17.2923C26.25 17.182 26.4731 17.2836 26.5905 17.5623C26.8928 18.2705 27.1863 18.9816 27.4857 19.6927C27.5209 19.774 27.5561 19.8552 27.6383 19.9307C27.6383 19.8465 27.6383 19.7624 27.6383 19.6811C27.6383 14.9878 27.6383 10.2944 27.6383 5.59819C27.6383 5.19184 27.7587 5.00899 28.0258 5.00028C28.3046 4.99157 28.4367 5.18604 28.4367 5.6011C28.4367 10.2857 28.4367 14.9732 28.4367 19.6579V19.9249C28.4367 19.9249 28.4601 19.9336 28.4748 19.9365C28.51 19.861 28.5511 19.7856 28.5834 19.7072C28.8799 19.0048 29.1734 18.3024 29.4698 17.6C29.596 17.3039 29.8132 17.1908 30.0451 17.2952C30.2652 17.3939 30.3269 17.6174 30.2095 17.9048C29.8866 18.6826 29.5579 19.4576 29.2644 20.2616C29.3231 20.2064 29.3847 20.1542 29.4434 20.0991C30.5382 19.0164 31.6359 17.9338 32.7307 16.8512C32.7894 16.7931 32.8452 16.7293 32.9127 16.6857C33.0859 16.5696 33.262 16.5841 33.4117 16.7264C33.5614 16.8686 33.576 17.0427 33.4704 17.2169C33.4234 17.2923 33.353 17.3562 33.2913 17.4171C32.2024 18.494 31.1135 19.5737 30.0216 20.6476C29.96 20.7086 29.869 20.7434 29.7927 20.7898C29.8162 20.816 29.8396 20.845 29.8631 20.8711C30.4795 20.6186 31.0959 20.3661 31.7122 20.1136C31.903 20.0352 32.0938 19.9539 32.2875 19.8814C32.5429 19.7856 32.7659 19.861 32.8511 20.0729C32.9391 20.2877 32.8481 20.5025 32.5957 20.607C31.8414 20.9205 31.0841 21.2281 30.3269 21.5387C30.2828 21.5561 30.2388 21.5822 30.1977 21.6519C30.2799 21.6519 30.3621 21.6519 30.4443 21.6519C32.0116 21.6519 33.576 21.6519 35.1434 21.6519C35.2402 21.6519 35.3782 21.6345 35.4281 21.6896C35.5279 21.7912 35.6218 21.9334 35.6394 22.0698C35.6629 22.244 35.5455 22.3833 35.3606 22.4239C35.2666 22.4443 35.1639 22.4414 35.0641 22.4414C33.532 22.4414 31.9999 22.4414 30.4648 22.4414H30.1977C30.1977 22.4414 30.1889 22.4704 30.186 22.4849C30.3856 22.5691 30.5852 22.6532 30.7877 22.7374C31.3923 22.9841 31.994 23.2308 32.5986 23.4805C32.7982 23.5617 32.901 23.7039 32.8716 23.9216C32.8452 24.1074 32.7278 24.2206 32.5487 24.2438C32.449 24.2554 32.3374 24.2235 32.2406 24.1858C31.5273 23.8984 30.817 23.6053 30.1067 23.315C30.0334 23.2831 29.957 23.257 29.8807 23.2279C29.869 23.2425 29.8573 23.2599 29.8455 23.2744L29.822 23.2715ZM27.6236 20.9379C27.0278 21.1527 26.7108 21.7477 26.8546 22.3137C27.0073 22.9058 27.5679 23.2918 28.1784 23.2192C28.7859 23.1467 29.2291 22.6155 29.2115 21.9799C29.1969 21.4661 28.8417 21.0046 28.422 20.9698C28.422 21.2484 28.422 21.5271 28.422 21.8028C28.422 22.2411 28.2958 22.4385 28.0169 22.4327C27.7469 22.4268 27.6236 22.2382 27.6236 21.8144C27.6236 21.53 27.6236 21.2455 27.6236 20.9379Z" fill="#FEFDFD"/>
<path d="M27.6236 20.9379C27.6236 21.2455 27.6236 21.53 27.6236 21.8144C27.6236 22.2353 27.744 22.4268 28.0169 22.4327C28.2958 22.4385 28.422 22.2411 28.422 21.8028C28.422 21.5242 28.422 21.2484 28.422 20.9698C28.8417 21.0075 29.1969 21.4661 29.2115 21.9799C29.2291 22.6155 28.7859 23.1467 28.1784 23.2192C27.5679 23.2918 27.0073 22.9058 26.8546 22.3137C26.7108 21.7477 27.0278 21.1527 27.6236 20.9379Z" fill="white"/>
<path d="M48.9648 22.1482C46.0003 18.3692 42.2698 15.5915 37.8026 13.7687C37.6558 13.7078 37.512 13.641 37.3242 13.5597C37.4474 13.4407 35.9006 13.0895 35.6629 13.017C31.6154 11.7689 27.4916 11.4554 23.309 12.1143C16.4292 13.1969 10.7908 16.4361 6.36175 21.7477C5.8804 22.3253 5.8804 22.4704 6.35588 23.0364C11.2487 28.8675 17.4946 32.2054 25.1347 32.8845C31.2867 33.4302 36.9954 32.0399 42.2082 28.7543C44.838 27.097 47.1186 25.0478 49 22.5807V22.1656C49 22.1656 48.9706 22.1598 48.9618 22.1482H48.9648ZM7.44187 22.3949C11.0785 18.0847 15.6073 15.2374 21.0813 13.8471C18.3076 16.0559 16.7843 18.8945 16.7931 22.4239C16.8019 25.9331 18.3282 28.7543 21.093 30.9457C15.6161 29.5554 11.0902 26.708 7.44187 22.3949ZM33.9136 30.9166C34.1102 30.7512 34.3069 30.5858 34.5035 30.4203C38.3456 27.1753 39.3523 21.6287 36.8956 17.2604C36.7342 16.976 36.5405 16.7525 36.1765 16.7989C35.7069 16.8599 35.5455 17.3039 35.7421 17.7916C36.1061 18.6855 36.5376 19.5679 36.7518 20.4996C37.9376 25.6457 34.2423 30.8876 28.9503 31.6394C23.6613 32.3882 18.9123 28.8965 18.1256 23.6778C17.3508 18.5491 21.1987 13.6149 26.4379 13.1098C29.2967 12.8341 32.0967 13.2927 34.8469 14.0677C34.8675 14.0735 36.4113 14.564 36.608 14.6308C40.4559 15.9282 45.1139 19.2196 47.5589 22.4065C43.9458 26.6964 39.414 29.5467 33.9136 30.9137V30.9166Z" fill="#FEFDFD"/>
<path d="M19.952 42.864H17.624L17.224 44H16.272L18.264 38.432H19.32L21.312 44H20.352L19.952 42.864ZM19.696 42.12L18.792 39.536L17.88 42.12H19.696Z" fill="white"/>
<path d="M23.0901 40.232C23.2235 40.008 23.3995 39.8347 23.6181 39.712C23.8421 39.584 24.1061 39.52 24.4101 39.52V40.464H24.1781C23.8208 40.464 23.5488 40.5547 23.3621 40.736C23.1808 40.9173 23.0901 41.232 23.0901 41.68V44H22.1781V39.592H23.0901V40.232Z" fill="white"/>
<path d="M27.0244 39.52C27.3658 39.52 27.6671 39.5893 27.9284 39.728C28.1951 39.8613 28.4031 40.0293 28.5524 40.232V39.592H29.4724V44.072C29.4724 44.4773 29.3871 44.8373 29.2164 45.152C29.0458 45.472 28.7978 45.7227 28.4724 45.904C28.1524 46.0853 27.7684 46.176 27.3204 46.176C26.7231 46.176 26.2271 46.0347 25.8324 45.752C25.4378 45.4747 25.2138 45.096 25.1604 44.616H26.0644C26.1338 44.8453 26.2804 45.0293 26.5044 45.168C26.7338 45.312 27.0058 45.384 27.3204 45.384C27.6884 45.384 27.9844 45.272 28.2084 45.048C28.4378 44.824 28.5524 44.4987 28.5524 44.072V43.336C28.3978 43.544 28.1871 43.72 27.9204 43.864C27.6591 44.0027 27.3604 44.072 27.0244 44.072C26.6404 44.072 26.2884 43.976 25.9684 43.784C25.6538 43.5867 25.4031 43.3147 25.2164 42.968C25.0351 42.616 24.9444 42.2187 24.9444 41.776C24.9444 41.3333 25.0351 40.9413 25.2164 40.6C25.4031 40.2587 25.6538 39.9947 25.9684 39.808C26.2884 39.616 26.6404 39.52 27.0244 39.52ZM28.5524 41.792C28.5524 41.488 28.4884 41.224 28.3604 41C28.2378 40.776 28.0751 40.6053 27.8724 40.488C27.6698 40.3707 27.4511 40.312 27.2164 40.312C26.9818 40.312 26.7631 40.3707 26.5604 40.488C26.3578 40.6 26.1924 40.768 26.0644 40.992C25.9418 41.2107 25.8804 41.472 25.8804 41.776C25.8804 42.08 25.9418 42.3467 26.0644 42.576C26.1924 42.8053 26.3578 42.9813 26.5604 43.104C26.7684 43.2213 26.9871 43.28 27.2164 43.28C27.4511 43.28 27.6698 43.2213 27.8724 43.104C28.0751 42.9867 28.2378 42.816 28.3604 42.592C28.4884 42.3627 28.5524 42.096 28.5524 41.792Z" fill="white"/>
<path d="M32.5823 44.072C32.1663 44.072 31.7903 43.9787 31.4543 43.792C31.1183 43.6 30.8543 43.3333 30.6623 42.992C30.4703 42.6453 30.3743 42.2453 30.3743 41.792C30.3743 41.344 30.473 40.9467 30.6703 40.6C30.8676 40.2533 31.137 39.9867 31.4783 39.8C31.8196 39.6133 32.201 39.52 32.6223 39.52C33.0436 39.52 33.425 39.6133 33.7663 39.8C34.1076 39.9867 34.377 40.2533 34.5743 40.6C34.7716 40.9467 34.8703 41.344 34.8703 41.792C34.8703 42.24 34.769 42.6373 34.5663 42.984C34.3636 43.3307 34.0863 43.6 33.7343 43.792C33.3876 43.9787 33.0036 44.072 32.5823 44.072ZM32.5823 43.28C32.817 43.28 33.0356 43.224 33.2383 43.112C33.4463 43 33.6143 42.832 33.7423 42.608C33.8703 42.384 33.9343 42.112 33.9343 41.792C33.9343 41.472 33.873 41.2027 33.7503 40.984C33.6276 40.76 33.465 40.592 33.2623 40.48C33.0596 40.368 32.841 40.312 32.6063 40.312C32.3716 40.312 32.153 40.368 31.9503 40.48C31.753 40.592 31.5956 40.76 31.4783 40.984C31.361 41.2027 31.3023 41.472 31.3023 41.792C31.3023 42.2667 31.4223 42.6347 31.6623 42.896C31.9076 43.152 32.2143 43.28 32.5823 43.28Z" fill="white"/>
<path d="M37.9959 39.52C38.3425 39.52 38.6519 39.592 38.9239 39.736C39.2012 39.88 39.4172 40.0933 39.5719 40.376C39.7265 40.6587 39.8039 41 39.8039 41.4V44H38.8999V41.536C38.8999 41.1413 38.8012 40.84 38.6039 40.632C38.4065 40.4187 38.1372 40.312 37.7959 40.312C37.4545 40.312 37.1825 40.4187 36.9799 40.632C36.7825 40.84 36.6839 41.1413 36.6839 41.536V44H35.7719V39.592H36.6839V40.096C36.8332 39.9147 37.0225 39.7733 37.2519 39.672C37.4865 39.5707 37.7345 39.52 37.9959 39.52Z" fill="white"/>
</g>
</svg>
