<svg width="54" height="51" viewBox="0 0 54 51" fill="none" xmlns="http://www.w3.org/2000/svg">
<mask id="mask0_1122_9275" style="mask-type:alpha" maskUnits="userSpaceOnUse" x="0" y="0" width="54" height="51">
<ellipse cx="27" cy="25.5" rx="27" ry="25.5" fill="#00529A"/>
</mask>
<g mask="url(#mask0_1122_9275)">
<ellipse cx="27" cy="25.5" rx="27" ry="25.5" fill="#00529A"/>
<path d="M27.6618 42.996C27.1703 42.8452 26.7097 42.6494 26.3499 42.2558C25.94 41.8071 25.7196 41.2902 25.7048 40.6852C25.6985 40.431 25.6936 40.1753 25.7063 39.9211C25.7161 39.7239 25.645 39.6302 25.4542 39.5584C24.2803 39.1154 23.5789 38.2695 23.3641 37.0307C23.3345 36.8588 23.3331 36.6814 23.3331 36.506C23.3303 35.5045 23.3282 34.503 23.3353 33.5022C23.3367 33.3043 23.293 33.2092 23.0698 33.1783C20.1636 32.7754 17.3722 31.9669 14.6928 30.7738C14.2998 30.5992 13.9146 30.4062 13.5309 30.2111C13.0034 29.9428 12.8654 29.516 13.133 28.9843C14.2069 26.8503 15.2836 24.7177 16.3589 22.5844C17.3673 20.585 18.3757 18.5848 19.3848 16.5854C19.6855 15.9888 20.0791 15.8578 20.6798 16.1494C22.26 16.9157 23.9183 17.3946 25.6746 17.534C27.7357 17.6981 29.6877 17.2594 31.5813 16.4889C31.8411 16.3832 32.0939 16.2593 32.3474 16.1374C32.9185 15.8635 33.3249 15.9966 33.6086 16.5593C35.1064 19.5321 36.6028 22.5056 38.1007 25.4783C38.6858 26.639 39.2738 27.7982 39.8618 28.9575C39.9013 29.035 39.952 29.1075 39.997 29.1822V29.7097C39.8646 29.9069 39.7266 30.09 39.5013 30.2027C38.8731 30.5182 38.2387 30.8189 37.5894 31.0879C35.1269 32.1063 32.5791 32.817 29.9377 33.1776C29.7166 33.2078 29.6687 33.3001 29.6701 33.5001C29.6772 34.5016 29.6765 35.5024 29.6729 36.5039C29.6687 37.7976 29.1209 38.8308 27.9519 39.3534C27.3012 39.6443 27.2442 40.0246 27.3048 40.5774C27.3125 40.6472 27.321 40.7169 27.3371 40.7852C27.4118 41.0958 27.6061 41.2874 27.9146 41.3698C28.0618 41.4092 28.2103 41.4043 28.3596 41.4043C31.8989 41.4043 35.4381 41.4106 38.9774 41.3972C39.44 41.3958 39.7801 41.5282 39.997 41.9402C39.997 42.2565 39.9921 42.5727 39.9998 42.8889C40.002 42.9805 39.9837 43.0122 39.8914 42.996C39.8491 42.9882 39.8041 42.9945 39.7597 42.9945H27.6625L27.6618 42.996ZM26.4914 22.3246C28.0371 22.3246 29.5828 22.3232 31.1292 22.3246C31.7425 22.3246 32.0404 22.6197 32.0425 23.226C32.0453 24.2184 32.0404 25.2114 32.0461 26.2038C32.0475 26.4432 31.982 26.6482 31.8362 26.8383C31.4102 27.3968 30.9898 27.9602 30.5708 28.5237C30.2778 28.9181 29.8969 29.2801 29.725 29.7231C29.549 30.1766 29.6835 30.7126 29.6736 31.2119C29.6666 31.595 29.6722 31.5922 30.0574 31.5331C32.765 31.1168 35.3621 30.3323 37.8619 29.2146C38.0838 29.1153 38.0985 29.0152 37.9936 28.8152C37.6105 28.0842 37.2394 27.3461 36.8676 26.6087C35.4804 23.8557 34.0952 21.1012 32.7087 18.3475C32.4341 17.8024 32.5193 17.846 31.9799 18.0637C30.4363 18.6869 28.8371 19.075 27.1745 19.1609C24.9507 19.2764 22.8268 18.8172 20.7833 17.9594C20.5953 17.8805 20.5101 17.9045 20.4185 18.089C20.0544 18.8299 19.6721 19.5617 19.3003 20.2991C17.8701 23.1387 16.4427 25.9798 15.0082 28.8173C14.904 29.0237 14.9294 29.1117 15.1477 29.2096C16.4793 29.8097 17.8468 30.3111 19.2482 30.7189C20.4805 31.0774 21.7332 31.3471 23.0022 31.5394C23.3212 31.588 23.3303 31.5781 23.3303 31.2584C23.331 30.8365 23.3254 30.4147 23.3331 29.9935C23.336 29.809 23.2874 29.6576 23.174 29.5075C22.5156 28.6399 21.8698 27.763 21.21 26.8968C21.0368 26.6693 20.9523 26.4326 20.9558 26.1439C20.9664 25.1868 20.9593 24.2289 20.96 23.2711C20.9607 22.6063 21.2438 22.3217 21.9043 22.321C23.4324 22.3196 24.9612 22.321 26.4893 22.321L26.4914 22.3246ZM26.4978 23.9177C25.3119 23.9177 24.1261 23.9177 22.9409 23.9177C22.6841 23.9177 22.5555 24.0501 22.555 24.3149C22.555 24.7896 22.5599 25.2635 22.5529 25.7375C22.5501 25.922 22.6015 26.0735 22.7142 26.2228C23.3881 27.1116 24.0528 28.0074 24.7246 28.8976C24.8626 29.0807 24.9316 29.2765 24.9295 29.5075C24.9239 30.1928 24.9281 30.8781 24.9281 31.5633C24.9281 33.2057 24.9239 34.8488 24.9309 36.4912C24.9352 37.5744 25.8492 38.3153 26.8696 38.0787C27.6047 37.9075 28.073 37.2751 28.0744 36.4306C28.078 34.1466 28.0787 31.8627 28.0737 29.5794C28.0737 29.3019 28.1477 29.0702 28.3153 28.849C28.98 27.975 29.6321 27.0926 30.2947 26.2171C30.4018 26.0763 30.4532 25.9333 30.4511 25.7572C30.4447 25.2565 30.4356 24.755 30.4546 24.2557C30.4651 23.9853 30.3708 23.9113 30.1074 23.9134C28.904 23.9254 27.7012 23.9184 26.4978 23.9177Z" fill="#FEFDFD"/>
<path d="M27.952 13.864H25.624L25.224 15H24.272L26.264 9.43201H27.32L29.312 15H28.352L27.952 13.864ZM27.696 13.12L26.792 10.536L25.88 13.12H27.696Z" fill="white"/>
</g>
</svg>
