<svg width="54" height="51" viewBox="0 0 54 51" fill="none" xmlns="http://www.w3.org/2000/svg">
<mask id="mask0_1122_9262" style="mask-type:alpha" maskUnits="userSpaceOnUse" x="0" y="0" width="54" height="51">
<ellipse cx="27" cy="25.5" rx="27" ry="25.5" fill="#00529A"/>
</mask>
<g mask="url(#mask0_1122_9262)">
<ellipse cx="27" cy="25.5" rx="27" ry="25.5" fill="#00529A"/>
<path d="M26.6618 42.9959C26.1703 42.8452 25.7097 42.6494 25.3499 42.2557C24.94 41.8071 24.7196 41.2901 24.7048 40.6851C24.6985 40.4309 24.6936 40.1752 24.7063 39.921C24.7161 39.7238 24.645 39.6301 24.4542 39.5583C23.2803 39.1153 22.5789 38.2694 22.3641 37.0306C22.3345 36.8588 22.3331 36.6813 22.3331 36.5059C22.3303 35.5044 22.3282 34.5029 22.3353 33.5022C22.3367 33.3043 22.293 33.2092 22.0698 33.1782C19.1636 32.7753 16.3722 31.9668 13.6928 30.7738C13.2998 30.5991 12.9146 30.4061 12.5309 30.2111C12.0034 29.9427 11.8654 29.5159 12.133 28.9842C13.2069 26.8502 14.2836 24.7177 15.3589 22.5844C16.3673 20.5849 17.3757 18.5848 18.3848 16.5853C18.6855 15.9888 19.0791 15.8578 19.6798 16.1494C21.26 16.9156 22.9183 17.3945 24.6746 17.534C26.7357 17.6981 28.6877 17.2593 30.5813 16.4888C30.8411 16.3832 31.0939 16.2592 31.3474 16.1374C31.9185 15.8634 32.3249 15.9965 32.6086 16.5592C34.1064 19.532 35.6028 22.5055 37.1007 25.4783C37.6858 26.6389 38.2738 27.7982 38.8618 28.9574C38.9013 29.0349 38.952 29.1074 38.997 29.1821V29.7096C38.8646 29.9068 38.7266 30.0899 38.5013 30.2026C37.8731 30.5181 37.2387 30.8188 36.5894 31.0879C34.1269 32.1063 31.5791 32.8169 28.9377 33.1775C28.7166 33.2078 28.6687 33.3 28.6701 33.5001C28.6772 34.5015 28.6765 35.5023 28.6729 36.5038C28.6687 37.7976 28.1209 38.8308 26.9519 39.3533C26.3012 39.6442 26.2442 40.0245 26.3048 40.5774C26.3125 40.6471 26.321 40.7168 26.3371 40.7851C26.4118 41.0957 26.6061 41.2873 26.9146 41.3697C27.0618 41.4091 27.2103 41.4042 27.3596 41.4042C30.8989 41.4042 34.4381 41.4105 37.9774 41.3972C38.44 41.3958 38.7801 41.5282 38.997 41.9402C38.997 42.2564 38.9921 42.5726 38.9998 42.8888C39.002 42.9804 38.9837 43.0121 38.8914 42.9959C38.8491 42.9881 38.8041 42.9945 38.7597 42.9945H26.6625L26.6618 42.9959ZM25.4914 22.3245C27.0371 22.3245 28.5828 22.3231 30.1292 22.3245C30.7425 22.3245 31.0404 22.6196 31.0425 23.226C31.0453 24.2183 31.0404 25.2114 31.0461 26.2037C31.0475 26.4431 30.982 26.6481 30.8362 26.8382C30.4102 27.3967 29.9898 27.9602 29.5708 28.5236C29.2778 28.918 28.8969 29.28 28.725 29.723C28.549 30.1765 28.6835 30.7125 28.6736 31.2118C28.6666 31.595 28.6722 31.5921 29.0574 31.533C31.765 31.1168 34.3621 30.3322 36.8619 29.2145C37.0838 29.1152 37.0985 29.0152 36.9936 28.8152C36.6105 28.0841 36.2394 27.346 35.8676 26.6087C34.4804 23.8556 33.0952 21.1012 31.7087 18.3474C31.4341 17.8023 31.5193 17.846 30.9799 18.0636C29.4363 18.6869 27.8371 19.0749 26.1745 19.1609C23.9507 19.2764 21.8268 18.8172 19.7833 17.9594C19.5953 17.8805 19.5101 17.9044 19.4185 18.0889C19.0544 18.8299 18.6721 19.5616 18.3003 20.299C16.8701 23.1387 15.4427 25.9797 14.0082 28.8173C13.904 29.0236 13.9294 29.1117 14.1477 29.2096C15.4793 29.8096 16.8468 30.3111 18.2482 30.7188C19.4805 31.0773 20.7332 31.3471 22.0022 31.5393C22.3212 31.5879 22.3303 31.5781 22.3303 31.2583C22.331 30.8365 22.3254 30.4146 22.3331 29.9934C22.336 29.8089 22.2874 29.6575 22.174 29.5075C21.5156 28.6398 20.8698 27.763 20.21 26.8967C20.0368 26.6692 19.9523 26.4326 19.9558 26.1438C19.9664 25.1867 19.9593 24.2289 19.96 23.2711C19.9607 22.6062 20.2438 22.3217 20.9043 22.321C22.4324 22.3196 23.9612 22.321 25.4893 22.321L25.4914 22.3245ZM25.4978 23.9176C24.3119 23.9176 23.1261 23.9176 21.9409 23.9176C21.6841 23.9176 21.5555 24.05 21.555 24.3148C21.555 24.7895 21.5599 25.2635 21.5529 25.7375C21.5501 25.922 21.6015 26.0734 21.7142 26.2227C22.3881 27.1115 23.0528 28.0074 23.7246 28.8976C23.8626 29.0807 23.9316 29.2765 23.9295 29.5075C23.9239 30.1927 23.9281 30.878 23.9281 31.5633C23.9281 33.2057 23.9239 34.8488 23.9309 36.4911C23.9352 37.5743 24.8492 38.3152 25.8696 38.0786C26.6047 37.9074 27.073 37.275 27.0744 36.4306C27.078 34.1466 27.0787 31.8626 27.0737 29.5793C27.0737 29.3018 27.1477 29.0701 27.3153 28.849C27.98 27.975 28.6321 27.0925 29.2947 26.2171C29.4018 26.0762 29.4532 25.9332 29.4511 25.7572C29.4447 25.2564 29.4356 24.755 29.4546 24.2556C29.4651 23.9852 29.3708 23.9112 29.1074 23.9134C27.904 23.9253 26.7012 23.9183 25.4978 23.9176Z" fill="#FEFDFD"/>
<path d="M26.576 12.1439C26.8747 12.1973 27.128 12.3546 27.336 12.6159C27.544 12.8773 27.648 13.1733 27.648 13.5039C27.648 13.7866 27.5733 14.0426 27.424 14.2719C27.28 14.4959 27.0693 14.6746 26.792 14.8079C26.5147 14.9359 26.192 14.9999 25.824 14.9999H23.6V9.43994H25.72C26.0987 9.43994 26.424 9.50394 26.696 9.63194C26.968 9.75994 27.1733 9.93328 27.312 10.1519C27.4507 10.3653 27.52 10.6053 27.52 10.8719C27.52 11.1919 27.4347 11.4586 27.264 11.6719C27.0933 11.8853 26.864 12.0426 26.576 12.1439ZM24.512 11.7759H25.64C25.9387 11.7759 26.1707 11.7093 26.336 11.5759C26.5067 11.4373 26.592 11.2399 26.592 10.9839C26.592 10.7333 26.5067 10.5386 26.336 10.3999C26.1707 10.2559 25.9387 10.1839 25.64 10.1839H24.512V11.7759ZM25.744 14.2559C26.0533 14.2559 26.296 14.1813 26.472 14.0319C26.648 13.8826 26.736 13.6746 26.736 13.4079C26.736 13.1359 26.6427 12.9199 26.456 12.7599C26.2693 12.5999 26.0213 12.5199 25.712 12.5199H24.512V14.2559H25.744Z" fill="white"/>
</g>
</svg>
