<svg width="54" height="51" viewBox="0 0 54 51" fill="none" xmlns="http://www.w3.org/2000/svg">
<mask id="mask0_1122_9271" style="mask-type:alpha" maskUnits="userSpaceOnUse" x="0" y="0" width="54" height="51">
<ellipse cx="27" cy="25.5" rx="27" ry="25.5" fill="#00529A"/>
</mask>
<g mask="url(#mask0_1122_9271)">
<path d="M54 25.5C54 39.5833 41.9117 51 27 51C12.0883 51 0 39.5833 0 25.5C0 11.4167 12.0883 0 27 0C41.9117 0 54 11.4167 54 25.5Z" fill="#00529A"/>
<path d="M8.34436 21.0185C8.71171 20.8708 8.97157 21.0219 9.22463 21.2958C12.1695 24.4718 15.1233 27.6389 18.0661 30.817C18.262 31.028 18.3722 31.0211 18.5845 30.8445C20.7845 29.0192 23.3056 28.0031 26.1437 27.8017C26.3151 27.7892 26.4865 27.7796 26.658 27.7672C26.675 27.7658 26.692 27.7568 26.7471 27.7389C26.7586 27.2884 26.7702 26.8242 26.7831 26.3606C26.7893 26.1316 26.7865 25.9012 26.8076 25.6728C26.8416 25.3162 27.0995 25.0802 27.4131 25.0975C27.7185 25.114 27.9532 25.3576 27.9546 25.7059C27.9566 26.2199 27.9342 26.7338 27.9151 27.247C27.909 27.4209 27.8811 27.5933 27.8627 27.7782C28.1321 27.8093 28.3464 27.8341 28.5607 27.8596C30.9212 28.1376 33.0573 28.9903 34.9532 30.4451C35.3199 30.7266 35.675 31.028 36.0131 31.344C36.1729 31.4937 36.2607 31.4799 36.409 31.3364C37.892 29.9084 39.3818 28.4867 40.8695 27.0635C42.5022 25.5017 44.1348 23.9399 45.7675 22.3781C46.143 22.0187 46.4804 21.9732 46.7376 22.245C46.9967 22.5189 46.9355 22.8679 46.5648 23.2225C40.2056 29.3062 33.845 35.3885 27.4893 41.4764C27.226 41.7282 26.9593 41.842 26.6131 41.7026C20.4532 35.0788 14.2913 28.4543 8.12939 21.8304C8.13552 21.6228 8.14164 21.4151 8.14708 21.2075C8.21307 21.1447 8.27905 21.0812 8.34436 21.0185ZM27.5389 39.7897C30.1403 37.3008 32.7416 34.8125 35.3437 32.3236C30.7076 27.7196 23.3165 28.05 19.1376 31.9352C21.562 34.5421 23.9872 37.1483 26.4117 39.7552C26.924 39.2475 27.2022 39.3999 27.5389 39.7897Z" fill="#FEFDFD"/>
<path d="M27.5212 6.05719C27.7301 6.03926 27.9491 5.96062 28.1137 6.02477C28.2695 6.08548 28.3763 6.28967 28.4879 6.4435C28.524 6.49386 28.5124 6.58561 28.511 6.65805C28.492 7.39893 28.4723 8.13982 28.4484 8.88071C28.4403 9.14423 28.3464 9.36498 28.0899 9.47466C27.8818 9.56365 27.6586 9.55262 27.5137 9.38429C27.3995 9.25185 27.3001 9.05179 27.2995 8.88209C27.2981 8.11361 27.3274 7.34513 27.3627 6.57733C27.3702 6.42281 27.4539 6.27242 27.5226 6.05788L27.5212 6.05719Z" fill="#FEFDFD"/>
<path d="M27.3369 10.9675C27.7226 10.6157 28.2376 10.7681 28.3444 11.1813C28.3689 11.2772 28.3736 11.3814 28.3716 11.4814C28.3546 12.1878 28.3348 12.8942 28.3117 13.5999C28.3083 13.6999 28.2967 13.8027 28.2689 13.8979C28.194 14.1552 27.9505 14.3194 27.6886 14.3008C27.4342 14.2829 27.2131 14.1056 27.1784 13.8469C27.1498 13.631 27.1607 13.4081 27.1654 13.1888C27.1784 12.6107 27.1872 12.0326 27.2199 11.4559C27.2308 11.2641 27.309 11.0772 27.3369 10.9675Z" fill="#FEFDFD"/>
<path d="M27.9838 20.4569C28.0314 20.6639 28.0967 20.8136 28.0947 20.9612C28.0845 21.7228 28.0607 22.4837 28.0335 23.2453C28.024 23.5095 27.9185 23.7261 27.6539 23.8261C27.3376 23.9455 26.9219 23.7675 26.9165 23.4377C26.9022 22.532 26.9403 21.6248 26.9879 20.7205C26.9995 20.4976 27.2015 20.341 27.4267 20.3383C27.6103 20.3355 27.7947 20.4135 27.9838 20.4569Z" fill="#FEFDFD"/>
<path d="M27.2376 15.6246C27.4505 15.6039 27.6682 15.5232 27.8328 15.5853C27.9899 15.6446 28.0981 15.8488 28.2138 15.9999C28.2464 16.0426 28.2382 16.124 28.2369 16.1875C28.2165 16.9484 28.1995 17.71 28.1682 18.4702C28.1546 18.7992 27.9736 19.0131 27.7056 19.0676C27.4552 19.118 27.2063 19.0103 27.0933 18.7723C27.041 18.662 27.0158 18.5261 27.0178 18.4026C27.0314 17.6596 27.0491 16.9167 27.0838 16.1751C27.0913 16.0116 27.1723 15.8509 27.2376 15.6246Z" fill="#FEFDFD"/>
<path d="M26.7933 30.0947C27.1831 29.7318 27.7076 29.8995 27.8015 30.3327C27.8151 30.3948 27.824 30.4603 27.8226 30.5238C27.8029 31.2854 27.7838 32.0462 27.7573 32.8078C27.7484 33.0617 27.6484 33.2714 27.4029 33.3776C27.1933 33.468 26.9702 33.4577 26.8253 33.2887C26.711 33.1555 26.6124 32.9555 26.6117 32.7844C26.609 32.0235 26.6369 31.2612 26.6723 30.501C26.6797 30.3382 26.7668 30.1782 26.7933 30.0947Z" fill="#FEFDFD"/>
<path d="M27.5478 34.7532C27.6049 34.985 27.6818 35.1498 27.6797 35.314C27.6723 36.066 27.6491 36.8186 27.6192 37.5705C27.6029 37.9727 27.3566 38.2196 27.0178 38.2065C26.6811 38.1934 26.4566 37.9299 26.4648 37.525C26.4791 36.782 26.5042 36.039 26.5287 35.2961C26.5376 35.0181 26.6423 34.767 26.9205 34.7035C27.1103 34.6601 27.3253 34.7318 27.5478 34.7532Z" fill="#FEFDFD"/>
<path d="M14.4987 12.0933C14.4694 11.9706 14.416 11.8786 14.3387 11.8173C14.2614 11.756 14.1534 11.7253 14.0147 11.7253C13.804 11.7253 13.6467 11.8066 13.5427 11.9693C13.4387 12.1293 13.384 12.396 13.3787 12.7693C13.448 12.652 13.5494 12.5613 13.6827 12.4973C13.816 12.4333 13.96 12.4013 14.1147 12.4013C14.2907 12.4013 14.4454 12.44 14.5787 12.5173C14.7147 12.592 14.82 12.7013 14.8947 12.8453C14.972 12.9893 15.0107 13.1613 15.0107 13.3613C15.0107 13.548 14.9734 13.7146 14.8987 13.8613C14.8267 14.008 14.7187 14.124 14.5747 14.2093C14.4307 14.292 14.2574 14.3333 14.0547 14.3333C13.78 14.3333 13.564 14.2733 13.4067 14.1533C13.252 14.0306 13.1427 13.8586 13.0787 13.6373C13.0174 13.416 12.9867 13.14 12.9867 12.8093C12.9867 11.8333 13.3307 11.3453 14.0187 11.3453C14.2854 11.3453 14.4947 11.4173 14.6467 11.5613C14.8014 11.7053 14.892 11.8826 14.9187 12.0933H14.4987ZM14.0147 12.7853C13.852 12.7853 13.7134 12.8346 13.5987 12.9333C13.4867 13.0293 13.4307 13.1693 13.4307 13.3533C13.4307 13.5373 13.4827 13.684 13.5867 13.7933C13.6934 13.9 13.8414 13.9533 14.0307 13.9533C14.1987 13.9533 14.3307 13.9013 14.4267 13.7973C14.5254 13.6933 14.5747 13.5546 14.5747 13.3813C14.5747 13.2 14.5267 13.056 14.4307 12.9493C14.3374 12.84 14.1987 12.7853 14.0147 12.7853Z" fill="white"/>
<path d="M15.4971 12.8373C15.4971 12.376 15.5744 12.016 15.7291 11.7573C15.8864 11.496 16.1558 11.3653 16.5371 11.3653C16.9184 11.3653 17.1864 11.496 17.3411 11.7573C17.4984 12.016 17.5771 12.376 17.5771 12.8373C17.5771 13.304 17.4984 13.6693 17.3411 13.9333C17.1864 14.1946 16.9184 14.3253 16.5371 14.3253C16.1558 14.3253 15.8864 14.1946 15.7291 13.9333C15.5744 13.6693 15.4971 13.304 15.4971 12.8373ZM17.1291 12.8373C17.1291 12.6213 17.1144 12.4386 17.0851 12.2893C17.0584 12.14 17.0024 12.0186 16.9171 11.9253C16.8318 11.8293 16.7051 11.7813 16.5371 11.7813C16.3691 11.7813 16.2424 11.8293 16.1571 11.9253C16.0718 12.0186 16.0144 12.14 15.9851 12.2893C15.9584 12.4386 15.9451 12.6213 15.9451 12.8373C15.9451 13.0613 15.9584 13.2493 15.9851 13.4013C16.0118 13.5533 16.0678 13.676 16.1531 13.7693C16.2411 13.8626 16.3691 13.9093 16.5371 13.9093C16.7051 13.9093 16.8318 13.8626 16.9171 13.7693C17.0051 13.676 17.0624 13.5533 17.0891 13.4013C17.1158 13.2493 17.1291 13.0613 17.1291 12.8373Z" fill="white"/>
<path d="M17.9316 12.2333C17.9316 12.02 18.0009 11.8493 18.1396 11.7213C18.2783 11.5906 18.4569 11.5253 18.6756 11.5253C18.8169 11.5253 18.9436 11.5546 19.0556 11.6133C19.1676 11.6693 19.2556 11.752 19.3196 11.8613C19.3836 11.968 19.4156 12.092 19.4156 12.2333C19.4156 12.3746 19.3823 12.5 19.3156 12.6093C19.2516 12.716 19.1623 12.7986 19.0476 12.8573C18.9329 12.916 18.8049 12.9453 18.6636 12.9453C18.4449 12.9453 18.2676 12.88 18.1316 12.7493C17.9983 12.6186 17.9316 12.4466 17.9316 12.2333ZM19.0516 12.2333C19.0516 12.092 19.0143 11.9826 18.9396 11.9053C18.8649 11.8253 18.7743 11.7853 18.6676 11.7853C18.5636 11.7853 18.4743 11.8253 18.3996 11.9053C18.3276 11.9826 18.2916 12.092 18.2916 12.2333C18.2916 12.3773 18.3263 12.488 18.3956 12.5653C18.4676 12.64 18.5569 12.6773 18.6636 12.6773C18.7703 12.6773 18.8609 12.6386 18.9356 12.5613C19.0129 12.484 19.0516 12.3746 19.0516 12.2333Z" fill="white"/>
<path d="M35.1438 12.0933C35.1145 11.9706 35.0612 11.8786 34.9838 11.8173C34.9065 11.756 34.7985 11.7253 34.6598 11.7253C34.4492 11.7253 34.2918 11.8066 34.1878 11.9693C34.0838 12.1293 34.0292 12.396 34.0238 12.7693C34.0932 12.652 34.1945 12.5613 34.3278 12.4973C34.4612 12.4333 34.6052 12.4013 34.7598 12.4013C34.9358 12.4013 35.0905 12.44 35.2238 12.5173C35.3598 12.592 35.4652 12.7013 35.5398 12.8453C35.6172 12.9893 35.6558 13.1613 35.6558 13.3613C35.6558 13.548 35.6185 13.7146 35.5438 13.8613C35.4718 14.008 35.3638 14.124 35.2198 14.2093C35.0759 14.292 34.9025 14.3333 34.6998 14.3333C34.4252 14.3333 34.2092 14.2733 34.0518 14.1533C33.8972 14.0306 33.7878 13.8586 33.7238 13.6373C33.6625 13.416 33.6318 13.14 33.6318 12.8093C33.6318 11.8333 33.9758 11.3453 34.6638 11.3453C34.9305 11.3453 35.1398 11.4173 35.2918 11.5613C35.4465 11.7053 35.5372 11.8826 35.5638 12.0933H35.1438ZM34.6598 12.7853C34.4972 12.7853 34.3585 12.8346 34.2438 12.9333C34.1318 13.0293 34.0758 13.1693 34.0758 13.3533C34.0758 13.5373 34.1278 13.684 34.2318 13.7933C34.3385 13.9 34.4865 13.9533 34.6758 13.9533C34.8438 13.9533 34.9758 13.9013 35.0718 13.7973C35.1705 13.6933 35.2198 13.5546 35.2198 13.3813C35.2198 13.2 35.1718 13.056 35.0758 12.9493C34.9825 12.84 34.8438 12.7853 34.6598 12.7853Z" fill="white"/>
<path d="M36.1423 12.8373C36.1423 12.376 36.2196 12.016 36.3743 11.7573C36.5316 11.496 36.8009 11.3653 37.1823 11.3653C37.5636 11.3653 37.8316 11.496 37.9863 11.7573C38.1436 12.016 38.2223 12.376 38.2223 12.8373C38.2223 13.304 38.1436 13.6693 37.9863 13.9333C37.8316 14.1946 37.5636 14.3253 37.1823 14.3253C36.8009 14.3253 36.5316 14.1946 36.3743 13.9333C36.2196 13.6693 36.1423 13.304 36.1423 12.8373ZM37.7743 12.8373C37.7743 12.6213 37.7596 12.4386 37.7303 12.2893C37.7036 12.14 37.6476 12.0186 37.5623 11.9253C37.4769 11.8293 37.3503 11.7813 37.1823 11.7813C37.0143 11.7813 36.8876 11.8293 36.8023 11.9253C36.7169 12.0186 36.6596 12.14 36.6303 12.2893C36.6036 12.4386 36.5903 12.6213 36.5903 12.8373C36.5903 13.0613 36.6036 13.2493 36.6303 13.4013C36.6569 13.5533 36.7129 13.676 36.7983 13.7693C36.8863 13.8626 37.0143 13.9093 37.1823 13.9093C37.3503 13.9093 37.4769 13.8626 37.5623 13.7693C37.6503 13.676 37.7076 13.5533 37.7343 13.4013C37.7609 13.2493 37.7743 13.0613 37.7743 12.8373Z" fill="white"/>
<path d="M38.5768 12.2333C38.5768 12.02 38.6461 11.8493 38.7848 11.7213C38.9234 11.5906 39.1021 11.5253 39.3208 11.5253C39.4621 11.5253 39.5888 11.5546 39.7008 11.6133C39.8128 11.6693 39.9008 11.752 39.9648 11.8613C40.0288 11.968 40.0608 12.092 40.0608 12.2333C40.0608 12.3746 40.0274 12.5 39.9608 12.6093C39.8968 12.716 39.8074 12.7986 39.6928 12.8573C39.5781 12.916 39.4501 12.9453 39.3088 12.9453C39.0901 12.9453 38.9128 12.88 38.7768 12.7493C38.6434 12.6186 38.5768 12.4466 38.5768 12.2333ZM39.6968 12.2333C39.6968 12.092 39.6594 11.9826 39.5848 11.9053C39.5101 11.8253 39.4194 11.7853 39.3128 11.7853C39.2088 11.7853 39.1194 11.8253 39.0448 11.9053C38.9728 11.9826 38.9368 12.092 38.9368 12.2333C38.9368 12.3773 38.9714 12.488 39.0408 12.5653C39.1128 12.64 39.2021 12.6773 39.3088 12.6773C39.4154 12.6773 39.5061 12.6386 39.5808 12.5613C39.6581 12.484 39.6968 12.3746 39.6968 12.2333Z" fill="white"/>
<path d="M36.7292 35.4706C36.7452 35.2226 36.8398 35.0292 37.0132 34.8906C37.1892 34.7519 37.4132 34.6826 37.6852 34.6826C37.8718 34.6826 38.0332 34.7159 38.1692 34.7826C38.3052 34.8492 38.4078 34.9399 38.4772 35.0546C38.5465 35.1692 38.5812 35.2986 38.5812 35.4426C38.5812 35.6079 38.5372 35.7492 38.4492 35.8666C38.3612 35.9839 38.2558 36.0626 38.1332 36.1026V36.1186C38.2905 36.1666 38.4132 36.2546 38.5012 36.3826C38.5892 36.5079 38.6332 36.6692 38.6332 36.8666C38.6332 37.0239 38.5972 37.1639 38.5252 37.2866C38.4532 37.4092 38.3465 37.5066 38.2052 37.5786C38.0638 37.6479 37.8945 37.6826 37.6972 37.6826C37.4092 37.6826 37.1718 37.6092 36.9852 37.4626C36.8012 37.3132 36.7025 37.0999 36.6892 36.8226H37.1292C37.1398 36.9639 37.1945 37.0799 37.2932 37.1706C37.3918 37.2586 37.5252 37.3026 37.6932 37.3026C37.8558 37.3026 37.9812 37.2586 38.0692 37.1706C38.1572 37.0799 38.2012 36.9639 38.2012 36.8226C38.2012 36.6359 38.1412 36.5039 38.0212 36.4266C37.9038 36.3466 37.7225 36.3066 37.4772 36.3066H37.3732V35.9306H37.4812C37.6972 35.9279 37.8612 35.8919 37.9732 35.8226C38.0878 35.7532 38.1452 35.6439 38.1452 35.4946C38.1452 35.3666 38.1038 35.2652 38.0212 35.1906C37.9385 35.1132 37.8212 35.0746 37.6692 35.0746C37.5198 35.0746 37.4038 35.1132 37.3212 35.1906C37.2385 35.2652 37.1892 35.3586 37.1732 35.4706H36.7292Z" fill="white"/>
<path d="M39.1122 36.1706C39.1122 35.7092 39.1895 35.3492 39.3442 35.0906C39.5015 34.8292 39.7708 34.6986 40.1522 34.6986C40.5335 34.6986 40.8015 34.8292 40.9562 35.0906C41.1135 35.3492 41.1922 35.7092 41.1922 36.1706C41.1922 36.6372 41.1135 37.0026 40.9562 37.2666C40.8015 37.5279 40.5335 37.6586 40.1522 37.6586C39.7708 37.6586 39.5015 37.5279 39.3442 37.2666C39.1895 37.0026 39.1122 36.6372 39.1122 36.1706ZM40.7442 36.1706C40.7442 35.9546 40.7295 35.7719 40.7002 35.6226C40.6735 35.4732 40.6175 35.3519 40.5322 35.2586C40.4468 35.1626 40.3202 35.1146 40.1522 35.1146C39.9842 35.1146 39.8575 35.1626 39.7722 35.2586C39.6868 35.3519 39.6295 35.4732 39.6002 35.6226C39.5735 35.7719 39.5602 35.9546 39.5602 36.1706C39.5602 36.3946 39.5735 36.5826 39.6002 36.7346C39.6268 36.8866 39.6828 37.0092 39.7682 37.1026C39.8562 37.1959 39.9842 37.2426 40.1522 37.2426C40.3202 37.2426 40.4468 37.1959 40.5322 37.1026C40.6202 37.0092 40.6775 36.8866 40.7042 36.7346C40.7308 36.5826 40.7442 36.3946 40.7442 36.1706Z" fill="white"/>
<path d="M41.5467 35.5666C41.5467 35.3532 41.616 35.1826 41.7547 35.0546C41.8933 34.9239 42.072 34.8586 42.2907 34.8586C42.432 34.8586 42.5587 34.8879 42.6707 34.9466C42.7827 35.0026 42.8707 35.0852 42.9347 35.1946C42.9987 35.3012 43.0307 35.4252 43.0307 35.5666C43.0307 35.7079 42.9973 35.8332 42.9307 35.9426C42.8667 36.0492 42.7773 36.1319 42.6627 36.1906C42.548 36.2492 42.42 36.2786 42.2787 36.2786C42.06 36.2786 41.8827 36.2132 41.7467 36.0826C41.6133 35.9519 41.5467 35.7799 41.5467 35.5666ZM42.6667 35.5666C42.6667 35.4252 42.6293 35.3159 42.5547 35.2386C42.48 35.1586 42.3893 35.1186 42.2827 35.1186C42.1787 35.1186 42.0893 35.1586 42.0147 35.2386C41.9427 35.3159 41.9067 35.4252 41.9067 35.5666C41.9067 35.7106 41.9413 35.8212 42.0107 35.8986C42.0827 35.9732 42.172 36.0106 42.2787 36.0106C42.3853 36.0106 42.476 35.9719 42.5507 35.8946C42.628 35.8172 42.6667 35.7079 42.6667 35.5666Z" fill="white"/>
<path d="M10.342 35.4706C10.358 35.2226 10.4526 35.0292 10.626 34.8906C10.802 34.7519 11.026 34.6826 11.298 34.6826C11.4846 34.6826 11.646 34.7159 11.782 34.7826C11.918 34.8492 12.0206 34.9399 12.09 35.0546C12.1593 35.1692 12.194 35.2986 12.194 35.4426C12.194 35.6079 12.15 35.7492 12.062 35.8666C11.974 35.9839 11.8686 36.0626 11.746 36.1026V36.1186C11.9033 36.1666 12.026 36.2546 12.114 36.3826C12.202 36.5079 12.246 36.6692 12.246 36.8666C12.246 37.0239 12.21 37.1639 12.138 37.2866C12.066 37.4092 11.9593 37.5066 11.818 37.5786C11.6766 37.6479 11.5073 37.6826 11.31 37.6826C11.022 37.6826 10.7846 37.6092 10.598 37.4626C10.414 37.3132 10.3153 37.0999 10.302 36.8226H10.742C10.7526 36.9639 10.8073 37.0799 10.906 37.1706C11.0046 37.2586 11.138 37.3026 11.306 37.3026C11.4686 37.3026 11.594 37.2586 11.682 37.1706C11.77 37.0799 11.814 36.9639 11.814 36.8226C11.814 36.6359 11.754 36.5039 11.634 36.4266C11.5166 36.3466 11.3353 36.3066 11.09 36.3066H10.986V35.9306H11.094C11.31 35.9279 11.474 35.8919 11.586 35.8226C11.7006 35.7532 11.758 35.6439 11.758 35.4946C11.758 35.3666 11.7166 35.2652 11.634 35.1906C11.5513 35.1132 11.434 35.0746 11.282 35.0746C11.1326 35.0746 11.0166 35.1132 10.934 35.1906C10.8513 35.2652 10.802 35.3586 10.786 35.4706H10.342Z" fill="white"/>
<path d="M12.725 36.1706C12.725 35.7092 12.8023 35.3492 12.957 35.0906C13.1143 34.8292 13.3836 34.6986 13.765 34.6986C14.1463 34.6986 14.4143 34.8292 14.569 35.0906C14.7263 35.3492 14.805 35.7092 14.805 36.1706C14.805 36.6372 14.7263 37.0026 14.569 37.2666C14.4143 37.5279 14.1463 37.6586 13.765 37.6586C13.3836 37.6586 13.1143 37.5279 12.957 37.2666C12.8023 37.0026 12.725 36.6372 12.725 36.1706ZM14.357 36.1706C14.357 35.9546 14.3423 35.7719 14.313 35.6226C14.2863 35.4732 14.2303 35.3519 14.145 35.2586C14.0596 35.1626 13.933 35.1146 13.765 35.1146C13.597 35.1146 13.4703 35.1626 13.385 35.2586C13.2996 35.3519 13.2423 35.4732 13.213 35.6226C13.1863 35.7719 13.173 35.9546 13.173 36.1706C13.173 36.3946 13.1863 36.5826 13.213 36.7346C13.2396 36.8866 13.2956 37.0092 13.381 37.1026C13.469 37.1959 13.597 37.2426 13.765 37.2426C13.933 37.2426 14.0596 37.1959 14.145 37.1026C14.233 37.0092 14.2903 36.8866 14.317 36.7346C14.3436 36.5826 14.357 36.3946 14.357 36.1706Z" fill="white"/>
<path d="M15.1595 35.5666C15.1595 35.3532 15.2288 35.1826 15.3675 35.0546C15.5061 34.9239 15.6848 34.8586 15.9035 34.8586C16.0448 34.8586 16.1715 34.8879 16.2835 34.9466C16.3955 35.0026 16.4835 35.0852 16.5475 35.1946C16.6115 35.3012 16.6435 35.4252 16.6435 35.5666C16.6435 35.7079 16.6101 35.8332 16.5435 35.9426C16.4795 36.0492 16.3901 36.1319 16.2755 36.1906C16.1608 36.2492 16.0328 36.2786 15.8915 36.2786C15.6728 36.2786 15.4955 36.2132 15.3595 36.0826C15.2261 35.9519 15.1595 35.7799 15.1595 35.5666ZM16.2795 35.5666C16.2795 35.4252 16.2421 35.3159 16.1675 35.2386C16.0928 35.1586 16.0021 35.1186 15.8955 35.1186C15.7915 35.1186 15.7021 35.1586 15.6275 35.2386C15.5555 35.3159 15.5195 35.4252 15.5195 35.5666C15.5195 35.7106 15.5541 35.8212 15.6235 35.8986C15.6955 35.9732 15.7848 36.0106 15.8915 36.0106C15.9981 36.0106 16.0888 35.9719 16.1635 35.8946C16.2408 35.8172 16.2795 35.7079 16.2795 35.5666Z" fill="white"/>
<path d="M41.0701 42H11.9885C11.7349 42 11.5293 41.7761 11.5293 41.5C11.5293 41.2239 11.7349 41 11.9885 41H41.0701C41.3237 41 41.5293 41.2239 41.5293 41.5C41.5293 41.7761 41.3237 42 41.0701 42Z" fill="#FEFDFD"/>
</g>
</svg>
