<svg width="45" height="45" viewBox="0 0 45 45" fill="none" xmlns="http://www.w3.org/2000/svg">
<g clip-path="url(#clip0_93_112)">
<circle cx="22.5" cy="22.5" r="22.5" fill="#00529A"/>
<path d="M11.66 14.556C11.7 13.756 11.98 13.14 12.5 12.708C13.028 12.268 13.72 12.048 14.576 12.048C15.16 12.048 15.66 12.152 16.076 12.36C16.492 12.56 16.804 12.836 17.012 13.188C17.228 13.532 17.336 13.924 17.336 14.364C17.336 14.868 17.204 15.296 16.94 15.648C16.684 15.992 16.376 16.224 16.016 16.344V16.392C16.48 16.536 16.84 16.792 17.096 17.16C17.36 17.528 17.492 18 17.492 18.576C17.492 19.056 17.38 19.484 17.156 19.86C16.94 20.236 16.616 20.532 16.184 20.748C15.76 20.956 15.248 21.06 14.648 21.06C13.744 21.06 13.008 20.832 12.44 20.376C11.872 19.92 11.572 19.248 11.54 18.36H13.172C13.188 18.752 13.32 19.068 13.568 19.308C13.824 19.54 14.172 19.656 14.612 19.656C15.02 19.656 15.332 19.544 15.548 19.32C15.772 19.088 15.884 18.792 15.884 18.432C15.884 17.952 15.732 17.608 15.428 17.4C15.124 17.192 14.652 17.088 14.012 17.088H13.664V15.708H14.012C15.148 15.708 15.716 15.328 15.716 14.568C15.716 14.224 15.612 13.956 15.404 13.764C15.204 13.572 14.912 13.476 14.528 13.476C14.152 13.476 13.86 13.58 13.652 13.788C13.452 13.988 13.336 14.244 13.304 14.556H11.66ZM18.8196 16.512C18.8196 15.128 19.0676 14.044 19.5636 13.26C20.0676 12.476 20.8996 12.084 22.0596 12.084C23.2196 12.084 24.0476 12.476 24.5436 13.26C25.0476 14.044 25.2996 15.128 25.2996 16.512C25.2996 17.904 25.0476 18.996 24.5436 19.788C24.0476 20.58 23.2196 20.976 22.0596 20.976C20.8996 20.976 20.0676 20.58 19.5636 19.788C19.0676 18.996 18.8196 17.904 18.8196 16.512ZM23.6436 16.512C23.6436 15.92 23.6036 15.424 23.5236 15.024C23.4516 14.616 23.2996 14.284 23.0676 14.028C22.8436 13.772 22.5076 13.644 22.0596 13.644C21.6116 13.644 21.2716 13.772 21.0396 14.028C20.8156 14.284 20.6636 14.616 20.5836 15.024C20.5116 15.424 20.4756 15.92 20.4756 16.512C20.4756 17.12 20.5116 17.632 20.5836 18.048C20.6556 18.456 20.8076 18.788 21.0396 19.044C21.2716 19.292 21.6116 19.416 22.0596 19.416C22.5076 19.416 22.8476 19.292 23.0796 19.044C23.3116 18.788 23.4636 18.456 23.5356 18.048C23.6076 17.632 23.6436 17.12 23.6436 16.512ZM33.0454 17.46H30.7774V19.788H29.1934V17.46H26.9254V15.996H29.1934V13.668H30.7774V15.996H33.0454V17.46Z" fill="#FEFDFD"/>
<path d="M12.396 29.652C12.396 28.98 12.528 28.384 12.792 27.864C13.064 27.344 13.428 26.944 13.884 26.664C14.348 26.384 14.864 26.244 15.432 26.244C15.928 26.244 16.36 26.344 16.728 26.544C17.104 26.744 17.404 26.996 17.628 27.3V26.352H19.32V33H17.628V32.028C17.412 32.34 17.112 32.6 16.728 32.808C16.352 33.008 15.916 33.108 15.42 33.108C14.86 33.108 14.348 32.964 13.884 32.676C13.428 32.388 13.064 31.984 12.792 31.464C12.528 30.936 12.396 30.332 12.396 29.652ZM17.628 29.676C17.628 29.268 17.548 28.92 17.388 28.632C17.228 28.336 17.012 28.112 16.74 27.96C16.468 27.8 16.176 27.72 15.864 27.72C15.552 27.72 15.264 27.796 15 27.948C14.736 28.1 14.52 28.324 14.352 28.62C14.192 28.908 14.112 29.252 14.112 29.652C14.112 30.052 14.192 30.404 14.352 30.708C14.52 31.004 14.736 31.232 15 31.392C15.272 31.552 15.56 31.632 15.864 31.632C16.176 31.632 16.468 31.556 16.74 31.404C17.012 31.244 17.228 31.02 17.388 30.732C17.548 30.436 17.628 30.084 17.628 29.676ZM24.6448 26.256C25.4368 26.256 26.0768 26.508 26.5648 27.012C27.0528 27.508 27.2968 28.204 27.2968 29.1V33H25.6168V29.328C25.6168 28.8 25.4848 28.396 25.2208 28.116C24.9568 27.828 24.5968 27.684 24.1408 27.684C23.6768 27.684 23.3088 27.828 23.0368 28.116C22.7728 28.396 22.6408 28.8 22.6408 29.328V33H20.9608V26.352H22.6408V27.18C22.8648 26.892 23.1488 26.668 23.4928 26.508C23.8448 26.34 24.2288 26.256 24.6448 26.256ZM31.4384 33.108C30.8944 33.108 30.4064 33.012 29.9744 32.82C29.5424 32.62 29.1984 32.352 28.9424 32.016C28.6944 31.68 28.5584 31.308 28.5344 30.9H30.2264C30.2584 31.156 30.3824 31.368 30.5984 31.536C30.8224 31.704 31.0984 31.788 31.4264 31.788C31.7464 31.788 31.9944 31.724 32.1704 31.596C32.3544 31.468 32.4464 31.304 32.4464 31.104C32.4464 30.888 32.3344 30.728 32.1104 30.624C31.8944 30.512 31.5464 30.392 31.0664 30.264C30.5704 30.144 30.1624 30.02 29.8424 29.892C29.5304 29.764 29.2584 29.568 29.0264 29.304C28.8024 29.04 28.6904 28.684 28.6904 28.236C28.6904 27.868 28.7944 27.532 29.0024 27.228C29.2184 26.924 29.5224 26.684 29.9144 26.508C30.3144 26.332 30.7824 26.244 31.3184 26.244C32.1104 26.244 32.7424 26.444 33.2144 26.844C33.6864 27.236 33.9464 27.768 33.9944 28.44H32.3864C32.3624 28.176 32.2504 27.968 32.0504 27.816C31.8584 27.656 31.5984 27.576 31.2704 27.576C30.9664 27.576 30.7304 27.632 30.5624 27.744C30.4024 27.856 30.3224 28.012 30.3224 28.212C30.3224 28.436 30.4344 28.608 30.6584 28.728C30.8824 28.84 31.2304 28.956 31.7024 29.076C32.1824 29.196 32.5784 29.32 32.8904 29.448C33.2024 29.576 33.4704 29.776 33.6944 30.048C33.9264 30.312 34.0464 30.664 34.0544 31.104C34.0544 31.488 33.9464 31.832 33.7304 32.136C33.5224 32.44 33.2184 32.68 32.8184 32.856C32.4264 33.024 31.9664 33.108 31.4384 33.108Z" fill="#FEFDFD"/>
</g>
<defs>
<clipPath id="clip0_93_112">
<rect width="45" height="45" fill="white"/>
</clipPath>
</defs>
</svg>
