<svg width="54" height="26" viewBox="0 0 54 26" fill="none" xmlns="http://www.w3.org/2000/svg">
<path d="M27 20.9921C27 20.9921 26.9398 20.9764 26.9248 20.9448L22.8571 14.3789C22.3008 13.4803 22 12.4398 22 11.3678C22 8.41198 24.2406 6 27 6C29.7594 6 32 8.41198 32 11.3757C32 12.4241 31.7143 13.4488 31.1805 14.3237C31.1805 14.3316 31.1654 14.3473 31.1654 14.3552C31.1654 14.3631 31.1654 14.371 31.1654 14.371L27.0902 20.9527C27.0902 20.9527 27.0451 21 27.015 21L27 20.9921ZM27 8.53022C25.5414 8.53022 24.3609 9.80715 24.3609 11.3678C24.3609 12.9285 25.5489 14.2133 27 14.2133C28.4511 14.2133 29.6391 12.9364 29.6391 11.3678C29.6391 9.79926 28.4511 8.53022 27 8.53022Z" fill="#00529A"/>
</svg>
