<svg width="54" height="26" viewBox="0 0 54 26" fill="none" xmlns="http://www.w3.org/2000/svg">
<path d="M32.9996 16.4817V18.5893C33.0003 18.7849 32.9659 18.9786 32.8986 19.1578C32.8313 19.3371 32.7325 19.498 32.6087 19.6303C32.4849 19.7626 32.3387 19.8633 32.1795 19.9259C32.0203 19.9886 31.8517 20.0119 31.6843 19.9943C29.8277 19.7594 28.0443 19.0207 26.4773 17.8376C25.0195 16.7589 23.7836 15.3198 22.8572 13.6224C21.8375 11.7897 21.2029 9.70306 21.0049 7.53156C20.9898 7.33729 21.0096 7.1415 21.0631 6.95664C21.1166 6.77178 21.2025 6.60191 21.3155 6.45785C21.4284 6.31378 21.5659 6.19868 21.7191 6.11986C21.8724 6.04105 22.038 6.00025 22.2056 6.00007H24.0156C24.3085 5.99671 24.5923 6.11744 24.8143 6.33976C25.0364 6.56208 25.1814 6.87081 25.2224 7.20841C25.2988 7.88287 25.4404 8.54511 25.6447 9.18249C25.7259 9.43394 25.7435 9.70721 25.6953 9.96993C25.6472 10.2327 25.5354 10.4738 25.3732 10.6648L24.6069 11.557C25.4658 13.3158 26.7165 14.7721 28.2271 15.7721L28.9933 14.8799C29.1574 14.6911 29.3645 14.5609 29.5901 14.5049C29.8158 14.4488 30.0505 14.4693 30.2664 14.5638C30.8138 14.8016 31.3826 14.9666 31.9619 15.0556C32.2549 15.1037 32.5226 15.2756 32.714 15.5386C32.9053 15.8015 33.007 16.1372 32.9996 16.4817Z" fill="#00529A"/>
</svg>
