<svg width="60" height="60" viewBox="0 0 60 60" fill="none" xmlns="http://www.w3.org/2000/svg">
<g clip-path="url(#clip0_23_2416)">
<circle cx="30" cy="30" r="30" fill="#FEFDFD"/>
<path d="M39.9994 35.4712V38.7831C40.0005 39.0906 39.9431 39.3949 39.831 39.6766C39.7188 39.9583 39.5542 40.2112 39.3478 40.419C39.1415 40.6269 38.8978 40.7851 38.6325 40.8836C38.3672 40.9821 38.0861 41.0187 37.8072 40.991C34.7128 40.6219 31.7404 39.4611 29.1289 37.6019C26.6992 35.9069 24.6393 33.6455 23.0953 30.9781C21.3959 28.0981 20.3382 24.8191 20.0082 21.4067C19.983 21.1015 20.0161 20.7938 20.1052 20.5033C20.1943 20.2128 20.3376 19.9459 20.5258 19.7195C20.7141 19.4931 20.9432 19.3122 21.1986 19.1884C21.454 19.0645 21.7301 19.0004 22.0093 19.0001H25.0261C25.5141 18.9948 25.9872 19.1846 26.3572 19.5339C26.7273 19.8833 26.969 20.3684 27.0373 20.8989C27.1646 21.9588 27.4007 22.9995 27.7412 24.0011C27.8765 24.3962 27.9058 24.8256 27.8256 25.2385C27.7454 25.6513 27.559 26.0303 27.2887 26.3304L26.0116 27.7324C27.4431 30.4963 29.5276 32.7847 32.0451 34.3562L33.3222 32.9542C33.5956 32.6574 33.9408 32.4528 34.3169 32.3648C34.6929 32.2767 35.0841 32.3089 35.444 32.4574C36.3564 32.8312 37.3043 33.0904 38.2698 33.2302C38.7582 33.3058 39.2044 33.576 39.5233 33.9892C39.8422 34.4024 40.0116 34.9298 39.9994 35.4712Z" fill="#00529A"/>
</g>
<defs>
<clipPath id="clip0_23_2416">
<rect width="60" height="60" fill="white"/>
</clipPath>
</defs>
</svg>
