<svg width="54" height="51" viewBox="0 0 54 51" fill="none" xmlns="http://www.w3.org/2000/svg">
<mask id="mask0_1122_9279" style="mask-type:alpha" maskUnits="userSpaceOnUse" x="0" y="0" width="54" height="51">
<ellipse cx="27" cy="25.5" rx="27" ry="25.5" fill="#00529A"/>
</mask>
<g mask="url(#mask0_1122_9279)">
<ellipse cx="27" cy="25.5" rx="27" ry="25.5" fill="#00529A"/>
<path d="M28.822 25.2715C29.1508 25.5937 29.4824 25.9129 29.8112 26.2351C30.6389 27.0507 31.4636 27.8692 32.2884 28.6848C32.3471 28.7429 32.4117 28.798 32.4528 28.8677C32.5526 29.0331 32.5408 29.2015 32.4087 29.3408C32.2649 29.4888 32.0888 29.5091 31.9127 29.4046C31.8364 29.3611 31.7718 29.2914 31.7072 29.2276C30.6183 28.1507 29.5265 27.0739 28.4405 25.9942C28.3788 25.9332 28.3465 25.8462 28.3025 25.7707C28.2732 25.7939 28.2468 25.82 28.2174 25.8433C28.4405 26.3773 28.6635 26.9114 28.8866 27.4454C28.9981 27.7096 29.1126 27.9737 29.2183 28.2407C29.3151 28.4874 29.2271 28.708 29.0128 28.7922C28.7956 28.8793 28.5814 28.7806 28.4757 28.531C28.1704 27.8141 27.874 27.0971 27.5717 26.3773C27.5394 26.3019 27.5071 26.2293 27.4249 26.1596C27.4249 26.2409 27.4249 26.3251 27.4249 26.4064C27.4249 27.9302 27.4249 29.454 27.4249 30.9778C27.4249 31.059 27.4337 31.1432 27.4191 31.2216C27.3809 31.4335 27.2459 31.5612 27.0258 31.5612C26.8086 31.5612 26.6706 31.4364 26.6324 31.2245C26.6178 31.1461 26.6266 31.062 26.6266 30.9807C26.6266 29.4656 26.6266 27.9505 26.6266 26.4354C26.6266 26.3454 26.6266 26.2583 26.6266 26.1683C26.6119 26.1625 26.5972 26.1567 26.5855 26.1509C26.5503 26.2264 26.5121 26.3019 26.4798 26.3773C26.1834 27.0797 25.8899 27.7821 25.5934 28.4845C25.4701 28.7748 25.2706 28.8822 25.0387 28.7922C24.8039 28.6993 24.7334 28.4671 24.8567 28.1711C25.1502 27.4687 25.4437 26.7663 25.7402 26.0639C25.7725 25.9913 25.8018 25.9158 25.8312 25.8433C25.8018 25.82 25.7754 25.7939 25.746 25.7707C25.702 25.8462 25.6727 25.9361 25.611 25.9942C24.525 27.0739 23.4332 28.1507 22.3443 29.2276C22.2797 29.2914 22.2181 29.3611 22.1417 29.4046C21.9656 29.5091 21.7895 29.4946 21.6457 29.3466C21.5019 29.1985 21.4931 29.0244 21.6076 28.8532C21.6516 28.7864 21.7162 28.7312 21.7749 28.6732C22.8638 27.5964 23.9527 26.5166 25.0446 25.4427C25.1033 25.3847 25.1708 25.3353 25.2324 25.2831C25.2207 25.2657 25.2089 25.2454 25.2001 25.2279C25.1385 25.2512 25.0768 25.2686 25.0181 25.2947C24.2932 25.5908 23.5653 25.8897 22.8403 26.1858C22.5497 26.3048 22.3237 26.2438 22.2269 26.0232C22.1212 25.7852 22.2298 25.582 22.538 25.4543C23.2395 25.1641 23.9439 24.8796 24.6454 24.5894C24.7246 24.5575 24.8039 24.5197 24.8773 24.4414H24.619C23.078 24.4414 21.5371 24.4414 19.9962 24.4414C19.8905 24.4414 19.779 24.4385 19.6792 24.4065C19.4796 24.3427 19.3945 24.1859 19.4238 23.9828C19.4503 23.7883 19.5735 23.678 19.7702 23.6548C19.8524 23.6461 19.9345 23.649 20.0197 23.649C21.5518 23.649 23.0839 23.649 24.619 23.649H24.8831L24.8949 23.6083C24.8332 23.5764 24.7745 23.5416 24.7129 23.5184C23.9879 23.2194 23.2571 22.9292 22.538 22.6215C22.4147 22.5693 22.268 22.4532 22.2327 22.3371C22.1975 22.2239 22.2503 22.0149 22.3384 21.951C22.447 21.8727 22.6583 21.8378 22.7875 21.8872C23.5124 22.16 24.2286 22.4648 24.9477 22.7579C25.0211 22.7869 25.0974 22.8102 25.1737 22.8363C25.206 22.8015 25.2383 22.7666 25.2706 22.7289C25.1884 22.6912 25.0915 22.6708 25.0299 22.6128C23.941 21.5447 22.8579 20.4737 21.7749 19.3997C21.7162 19.3417 21.6545 19.2836 21.6105 19.2169C21.5019 19.0427 21.5166 18.8686 21.6663 18.7234C21.8159 18.5812 21.992 18.5667 22.1652 18.6828C22.2327 18.7293 22.2885 18.7902 22.3472 18.8483C23.4361 19.9251 24.528 21.0019 25.6169 22.0816C25.6815 22.1455 25.7314 22.221 25.7871 22.2935L25.8429 22.2529C25.8165 22.1803 25.7901 22.1078 25.7607 22.0352C25.4584 21.3096 25.1532 20.5839 24.8508 19.8583C24.7452 19.6029 24.8127 19.391 25.0211 19.2923C25.25 19.182 25.4731 19.2836 25.5905 19.5623C25.8928 20.2705 26.1863 20.9816 26.4857 21.6927C26.5209 21.774 26.5561 21.8552 26.6383 21.9307C26.6383 21.8465 26.6383 21.7624 26.6383 21.6811C26.6383 16.9878 26.6383 12.2944 26.6383 7.59819C26.6383 7.19184 26.7587 7.00899 27.0258 7.00028C27.3046 6.99157 27.4367 7.18604 27.4367 7.6011C27.4367 12.2857 27.4367 16.9732 27.4367 21.6579V21.9249C27.4367 21.9249 27.4601 21.9336 27.4748 21.9365C27.51 21.861 27.5511 21.7856 27.5834 21.7072C27.8799 21.0048 28.1734 20.3024 28.4698 19.6C28.596 19.3039 28.8132 19.1908 29.0451 19.2952C29.2652 19.3939 29.3269 19.6174 29.2095 19.9048C28.8866 20.6826 28.5579 21.4576 28.2644 22.2616C28.3231 22.2064 28.3847 22.1542 28.4434 22.0991C29.5382 21.0164 30.6359 19.9338 31.7307 18.8512C31.7894 18.7931 31.8452 18.7293 31.9127 18.6857C32.0859 18.5696 32.262 18.5841 32.4117 18.7264C32.5614 18.8686 32.576 19.0427 32.4704 19.2169C32.4234 19.2923 32.353 19.3562 32.2913 19.4171C31.2024 20.494 30.1135 21.5737 29.0216 22.6476C28.96 22.7086 28.869 22.7434 28.7927 22.7898C28.8162 22.816 28.8396 22.845 28.8631 22.8711C29.4795 22.6186 30.0959 22.3661 30.7122 22.1136C30.903 22.0352 31.0938 21.9539 31.2875 21.8814C31.5429 21.7856 31.7659 21.861 31.8511 22.0729C31.9391 22.2877 31.8481 22.5025 31.5957 22.607C30.8414 22.9205 30.0841 23.2281 29.3269 23.5387C29.2828 23.5561 29.2388 23.5822 29.1977 23.6519C29.2799 23.6519 29.3621 23.6519 29.4443 23.6519C31.0116 23.6519 32.576 23.6519 34.1434 23.6519C34.2402 23.6519 34.3782 23.6345 34.4281 23.6896C34.5279 23.7912 34.6218 23.9334 34.6394 24.0698C34.6629 24.244 34.5455 24.3833 34.3606 24.4239C34.2666 24.4443 34.1639 24.4414 34.0641 24.4414C32.532 24.4414 30.9999 24.4414 29.4648 24.4414H29.1977C29.1977 24.4414 29.1889 24.4704 29.186 24.4849C29.3856 24.5691 29.5852 24.6532 29.7877 24.7374C30.3923 24.9841 30.994 25.2308 31.5986 25.4805C31.7982 25.5617 31.901 25.7039 31.8716 25.9216C31.8452 26.1074 31.7278 26.2206 31.5487 26.2438C31.449 26.2554 31.3374 26.2235 31.2406 26.1858C30.5273 25.8984 29.817 25.6053 29.1067 25.315C29.0334 25.2831 28.9571 25.257 28.8807 25.2279C28.869 25.2425 28.8573 25.2599 28.8455 25.2744L28.822 25.2715ZM26.6236 22.9379C26.0278 23.1527 25.7108 23.7477 25.8546 24.3137C26.0073 24.9058 26.5679 25.2918 27.1784 25.2192C27.7859 25.1467 28.2291 24.6155 28.2115 23.9799C28.1969 23.4661 27.8417 23.0046 27.422 22.9698C27.422 23.2484 27.422 23.5271 27.422 23.8028C27.422 24.2411 27.2958 24.4385 27.0169 24.4327C26.7469 24.4269 26.6236 24.2382 26.6236 23.8144C26.6236 23.53 26.6236 23.2455 26.6236 22.9379Z" fill="#FEFDFD"/>
<path d="M26.6236 22.9379C26.6236 23.2455 26.6236 23.53 26.6236 23.8144C26.6236 24.2353 26.744 24.4269 27.0169 24.4327C27.2958 24.4385 27.422 24.2411 27.422 23.8028C27.422 23.5242 27.422 23.2484 27.422 22.9698C27.8417 23.0075 28.1969 23.4661 28.2115 23.9799C28.2291 24.6155 27.7859 25.1467 27.1784 25.2192C26.5679 25.2918 26.0073 24.9058 25.8546 24.3137C25.7108 23.7477 26.0278 23.1527 26.6236 22.9379Z" fill="white"/>
<path d="M47.9648 24.1482C45.0003 20.3692 41.2698 17.5915 36.8026 15.7687C36.6558 15.7078 36.512 15.641 36.3242 15.5597C36.4474 15.4407 34.9006 15.0895 34.6629 15.017C30.6154 13.7689 26.4916 13.4554 22.309 14.1143C15.4292 15.1969 9.79083 18.4361 5.36175 23.7477C4.8804 24.3253 4.8804 24.4704 5.35588 25.0364C10.2487 30.8675 16.4946 34.2054 24.1347 34.8845C30.2867 35.4302 35.9954 34.0399 41.2082 30.7543C43.838 29.097 46.1186 27.0478 48 24.5807V24.1656C48 24.1656 47.9706 24.1598 47.9618 24.1482H47.9648ZM6.44187 24.3949C10.0785 20.0847 14.6073 17.2374 20.0813 15.8471C17.3076 18.0559 15.7843 20.8945 15.7931 24.4239C15.8019 27.9331 17.3282 30.7543 20.093 32.9457C14.6161 31.5554 10.0902 28.708 6.44187 24.3949ZM32.9136 32.9166C33.1102 32.7512 33.3069 32.5858 33.5035 32.4203C37.3456 29.1753 38.3523 23.6287 35.8956 19.2604C35.7342 18.976 35.5405 18.7525 35.1765 18.7989C34.7069 18.8599 34.5455 19.3039 34.7421 19.7916C35.1061 20.6855 35.5376 21.5679 35.7518 22.4996C36.9376 27.6457 33.2423 32.8876 27.9503 33.6394C22.6613 34.3882 17.9123 30.8965 17.1256 25.6778C16.3508 20.5491 20.1987 15.6149 25.4379 15.1098C28.2967 14.8341 31.0967 15.2927 33.8469 16.0677C33.8675 16.0735 35.4113 16.564 35.608 16.6308C39.4559 17.9282 44.1139 21.2196 46.5589 24.4065C42.9458 28.6964 38.4139 31.5467 32.9136 32.9137V32.9166Z" fill="#FEFDFD"/>
<path d="M23.72 39.44L21.88 42.984V45H20.968V42.984L19.12 39.44H20.136L21.424 42.168L22.712 39.44H23.72Z" fill="white"/>
<path d="M27.7957 43.864H25.4678L25.0678 45H24.1157L26.1077 39.432H27.1637L29.1558 45H28.1957L27.7957 43.864ZM27.5397 43.12L26.6357 40.536L25.7237 43.12H27.5397Z" fill="white"/>
<path d="M34.0459 41.04C33.9019 40.7627 33.7019 40.5547 33.4459 40.416C33.1899 40.272 32.8939 40.2 32.5579 40.2C32.1899 40.2 31.8619 40.2827 31.5739 40.448C31.2859 40.6133 31.0592 40.848 30.8939 41.152C30.7339 41.456 30.6539 41.808 30.6539 42.208C30.6539 42.608 30.7339 42.9627 30.8939 43.272C31.0592 43.576 31.2859 43.8107 31.5739 43.976C31.8619 44.1413 32.1899 44.224 32.5579 44.224C33.0539 44.224 33.4565 44.0853 33.7659 43.808C34.0752 43.5307 34.2645 43.1547 34.3339 42.68H32.2459V41.952H35.3099V42.664C35.2512 43.096 35.0965 43.4933 34.8459 43.856C34.6005 44.2187 34.2779 44.5093 33.8779 44.728C33.4832 44.9413 33.0432 45.048 32.5579 45.048C32.0352 45.048 31.5579 44.928 31.1259 44.688C30.6939 44.4427 30.3499 44.104 30.0939 43.672C29.8432 43.24 29.7179 42.752 29.7179 42.208C29.7179 41.664 29.8432 41.176 30.0939 40.744C30.3499 40.312 30.6939 39.976 31.1259 39.736C31.5632 39.4907 32.0405 39.368 32.5579 39.368C33.1499 39.368 33.6752 39.5147 34.1339 39.808C34.5979 40.096 34.9339 40.5067 35.1419 41.04H34.0459Z" fill="white"/>
</g>
</svg>
