<svg width="1600" height="304" viewBox="0 0 1600 304" fill="none" xmlns="http://www.w3.org/2000/svg">
<g clip-path="url(#clip0_506_2355)" filter="url(#filter0_f_506_2355)">
<path d="M784.59 101.12C810.38 88.3802 836.32 87.9502 861.77 101.19C869.12 87.3902 874.72 73.1502 883.44 61.1702C916.47 15.8102 963.47 -2.44975 1017.68 -0.909754C1080.75 0.880246 1130.75 26.4402 1158.8 86.4102C1160.26 89.5402 1165.17 91.8202 1168.93 92.8902C1172.83 94.0002 1177.3 93.0002 1181.51 93.2102C1194.19 93.8402 1202.33 101.92 1202.41 113.8C1202.5 126.01 1194.79 134.11 1182.16 134.91C1178.85 135.12 1175.52 134.94 1171.72 134.94C1170.23 151.92 1170.12 168.34 1167.16 184.23C1155.6 246.13 1116.64 283 1056.98 297.38C998.57 311.46 944.29 301.22 899.44 259.06C863.15 224.94 853.98 180.63 858.2 132.78C859.67 116.03 859.41 113.93 843.2 109.92C835.14 107.93 826.44 106.58 818.29 107.42C809.27 108.34 799.75 110.63 791.88 114.95C781.38 120.72 789.04 130.95 789.45 138.92C795.64 258.15 704.19 308.73 619.6 302.25C563.06 297.91 517.82 273.89 491.12 221.6C479.36 198.57 475.43 173.63 476.89 147.95C477.43 138.45 475.09 134.34 464.5 134.68C452.02 135.07 443.92 125.84 444 113.98C444.08 102.07 452.43 92.1502 464.72 93.6502C481.24 95.6602 487.3 87.4802 494.48 74.4702C522.29 24.0702 568.2 1.84025 623.66 -0.749754C680.84 -3.41975 730.1 14.7502 764.5 63.1102C772.45 74.2802 777.51 87.5102 784.59 101.12ZM1009.09 9.11025C971.48 9.68025 932.81 21.9902 903.15 54.4902C865.12 96.1702 859.97 145.84 874.87 197.63C889.86 249.72 928.25 278.5 979.84 288.75C1036.92 300.09 1089.15 288.34 1128.15 242.87C1165.27 199.58 1167.8 148.22 1150.29 96.1902C1132.38 43.0002 1078.7 9.86025 1009.09 9.12025V9.11025ZM487.34 150.81C487.23 234.99 546.2 292.39 633.07 292.66C717.81 292.92 778.46 234.62 778.58 152.78C778.71 67.2502 720.05 9.36025 633.16 9.28025C546.03 9.21025 487.44 66.0602 487.33 150.8L487.34 150.81Z" fill="#B5CFEF" fill-opacity="0.15"/>
<path d="M1041.78 202.72H984.14L974.9 230H935.52L991.4 75.56H1034.96L1090.84 230H1051.02L1041.78 202.72ZM1032.1 173.68L1012.96 117.14L994.04 173.68H1032.1Z" fill="#B5CFEF" fill-opacity="0.1"/>
<g filter="url(#filter1_f_506_2355)">
<path d="M1538.26 74.56V229H1500.64V74.56H1538.26Z" fill="#B5CFEF" fill-opacity="0.1"/>
</g>
<g filter="url(#filter2_f_506_2355)">
<path d="M1251.26 151.56C1251.26 136.307 1254.56 122.74 1261.16 110.86C1267.76 98.8333 1276.93 89.52 1288.66 82.92C1300.54 76.1733 1313.96 72.8 1328.92 72.8C1347.25 72.8 1362.95 77.64 1376 87.32C1389.05 97 1397.78 110.2 1402.18 126.92H1360.82C1357.74 120.467 1353.34 115.553 1347.62 112.18C1342.05 108.807 1335.67 107.12 1328.48 107.12C1316.89 107.12 1307.51 111.153 1300.32 119.22C1293.13 127.287 1289.54 138.067 1289.54 151.56C1289.54 165.053 1293.13 175.833 1300.32 183.9C1307.51 191.967 1316.89 196 1328.48 196C1335.67 196 1342.05 194.313 1347.62 190.94C1353.34 187.567 1357.74 182.653 1360.82 176.2H1402.18C1397.78 192.92 1389.05 206.12 1376 215.8C1362.95 225.333 1347.25 230.1 1328.92 230.1C1313.96 230.1 1300.54 226.8 1288.66 220.2C1276.93 213.453 1267.76 204.14 1261.16 192.26C1254.56 180.38 1251.26 166.813 1251.26 151.56Z" fill="#B5CFEF" fill-opacity="0.1"/>
</g>
<path d="M669.18 229L617.26 160.8V229H579.64V74.56H617.26V142.32L668.74 74.56H712.96L653.12 150.24L715.16 229H669.18Z" fill="#B5CFEF" fill-opacity="0.1"/>
<g filter="url(#filter3_f_506_2355)">
<path d="M306.4 229L274.28 170.7H265.26V229H227.64V74.56H290.78C302.953 74.56 313.293 76.6867 321.8 80.94C330.453 85.1933 336.907 91.06 341.16 98.54C345.413 105.873 347.54 114.087 347.54 123.18C347.54 133.447 344.607 142.613 338.74 150.68C333.02 158.747 324.513 164.467 313.22 167.84L348.86 229H306.4ZM265.26 144.08H288.58C295.473 144.08 300.607 142.393 303.98 139.02C307.5 135.647 309.26 130.88 309.26 124.72C309.26 118.853 307.5 114.233 303.98 110.86C300.607 107.487 295.473 105.8 288.58 105.8H265.26V144.08Z" fill="#B5CFEF" fill-opacity="0.1"/>
</g>
<g filter="url(#filter4_f_506_2355)">
<path d="M71.5 74.56C87.78 74.56 102.007 77.7867 114.18 84.24C126.353 90.6933 135.74 99.7867 142.34 111.52C149.087 123.107 152.46 136.527 152.46 151.78C152.46 166.887 149.087 180.307 142.34 192.04C135.74 203.773 126.28 212.867 113.96 219.32C101.787 225.773 87.6333 229 71.5 229H13.64V74.56H71.5ZM69.08 196.44C83.3067 196.44 94.38 192.553 102.3 184.78C110.22 177.007 114.18 166.007 114.18 151.78C114.18 137.553 110.22 126.48 102.3 118.56C94.38 110.64 83.3067 106.68 69.08 106.68H51.26V196.44H69.08Z" fill="#B5CFEF" fill-opacity="0.1"/>
</g>
</g>
<defs>
<filter id="filter0_f_506_2355" x="-14" y="-14" width="1628" height="332" filterUnits="userSpaceOnUse" color-interpolation-filters="sRGB">
<feFlood flood-opacity="0" result="BackgroundImageFix"/>
<feBlend mode="normal" in="SourceGraphic" in2="BackgroundImageFix" result="shape"/>
<feGaussianBlur stdDeviation="7" result="effect1_foregroundBlur_506_2355"/>
</filter>
<filter id="filter1_f_506_2355" x="1465.64" y="39.56" width="107.62" height="224.44" filterUnits="userSpaceOnUse" color-interpolation-filters="sRGB">
<feFlood flood-opacity="0" result="BackgroundImageFix"/>
<feBlend mode="normal" in="SourceGraphic" in2="BackgroundImageFix" result="shape"/>
<feGaussianBlur stdDeviation="17.5" result="effect1_foregroundBlur_506_2355"/>
</filter>
<filter id="filter2_f_506_2355" x="1216.26" y="37.8" width="220.92" height="227.3" filterUnits="userSpaceOnUse" color-interpolation-filters="sRGB">
<feFlood flood-opacity="0" result="BackgroundImageFix"/>
<feBlend mode="normal" in="SourceGraphic" in2="BackgroundImageFix" result="shape"/>
<feGaussianBlur stdDeviation="17.5" result="effect1_foregroundBlur_506_2355"/>
</filter>
<filter id="filter3_f_506_2355" x="192.64" y="39.56" width="191.22" height="224.44" filterUnits="userSpaceOnUse" color-interpolation-filters="sRGB">
<feFlood flood-opacity="0" result="BackgroundImageFix"/>
<feBlend mode="normal" in="SourceGraphic" in2="BackgroundImageFix" result="shape"/>
<feGaussianBlur stdDeviation="17.5" result="effect1_foregroundBlur_506_2355"/>
</filter>
<filter id="filter4_f_506_2355" x="-21.36" y="39.56" width="208.82" height="224.44" filterUnits="userSpaceOnUse" color-interpolation-filters="sRGB">
<feFlood flood-opacity="0" result="BackgroundImageFix"/>
<feBlend mode="normal" in="SourceGraphic" in2="BackgroundImageFix" result="shape"/>
<feGaussianBlur stdDeviation="17.5" result="effect1_foregroundBlur_506_2355"/>
</filter>
<clipPath id="clip0_506_2355">
<rect width="1600" height="304" fill="white"/>
</clipPath>
</defs>
</svg>
